<?xml version="1.0" standalone="no"?><!DOCTYPE svg PUBLIC "-//W3C//DTD SVG 1.1//EN" "http://www.w3.org/Graphics/SVG/1.1/DTD/svg11.dtd"><svg height="505" node-id="1" sillyvg="true" template-height="505" template-width="600" version="1.1" viewBox="0 0 600 505" width="600" xmlns="http://www.w3.org/2000/svg" xmlns:xlink="http://www.w3.org/1999/xlink"><defs node-id="182"><linearGradient gradientUnits="objectBoundingBox" id="linearGradient-11" node-id="10" spreadMethod="pad" x1="0.4999879" x2="0.4999879" y1="100.0341" y2="-6.122033"><stop offset="0" stop-color="#f7b33d"></stop><stop offset="1" stop-color="#e62452"></stop></linearGradient><linearGradient gradientUnits="objectBoundingBox" id="linearGradient-14" node-id="14" spreadMethod="pad" x1="0.49991667" x2="0.49991667" y1="104.695694" y2="-6.4321327"><stop offset="0" stop-color="#f7b33d"></stop><stop offset="1" stop-color="#e62452"></stop></linearGradient><mask height="167.19519" id="mask-2" maskUnits="userSpaceOnUse" node-id="33" width="160.42773" x="62.422523" y="279.3219"><path d="M 124.59 293.25 L 209.48 293.25 L 209.48 431.31 L 124.59 431.31 Z" fill="#ffffff" fill-rule="evenodd" node-id="199" stroke="none" target-height="138.0586" target-width="84.89063" target-x="124.59063" target-y="293.25482"></path></mask><mask height="240.00204" id="mask-4" maskUnits="userSpaceOnUse" node-id="38" width="172.04007" x="385.32175" y="212.996"><path d="M 399.66 233.00 L 487.16 233.00 L 487.16 431.31 L 399.66 431.31 Z" fill="#ffffff" fill-rule="evenodd" node-id="206" stroke="none" target-height="198.31725" target-width="87.49875" target-x="399.65842" target-y="232.99617"></path></mask><mask height="7.1999817" id="mask-8" maskUnits="userSpaceOnUse" node-id="48" width="152.40001" x="202.3" y="258.40002"><path d="M 214.00 181.00 L 392.00 181.00 L 392.00 412.00 L 214.00 412.00 Z" fill="#ffffff" fill-rule="evenodd" node-id="213" stroke="none" target-height="231" target-width="178" target-x="214" target-y="181"></path></mask><mask height="3.5999756" id="mask1" maskUnits="userSpaceOnUse" node-id="217" width="212.40001" x="197.3" y="278.7"><path d="M 214.00 181.00 L 392.00 181.00 L 392.00 412.00 L 214.00 412.00 Z" fill="#ffffff" fill-rule="evenodd" node-id="221" stroke="none" target-height="231" target-width="178" target-x="214" target-y="181"></path></mask><mask height="3.5999756" id="mask2" maskUnits="userSpaceOnUse" node-id="225" width="212.40001" x="197.3" y="288.7"><path d="M 214.00 181.00 L 392.00 181.00 L 392.00 412.00 L 214.00 412.00 Z" fill="#ffffff" fill-rule="evenodd" node-id="229" stroke="none" target-height="231" target-width="178" target-x="214" target-y="181"></path></mask><mask height="3.5999756" id="mask3" maskUnits="userSpaceOnUse" node-id="233" width="212.40001" x="197.3" y="298.7"><path d="M 214.00 181.00 L 392.00 181.00 L 392.00 412.00 L 214.00 412.00 Z" fill="#ffffff" fill-rule="evenodd" node-id="237" stroke="none" target-height="231" target-width="178" target-x="214" target-y="181"></path></mask><mask height="3.5999756" id="mask4" maskUnits="userSpaceOnUse" node-id="241" width="127.2" x="204.40001" y="308.7"><path d="M 214.00 181.00 L 392.00 181.00 L 392.00 412.00 L 214.00 412.00 Z" fill="#ffffff" fill-rule="evenodd" node-id="245" stroke="none" target-height="231" target-width="178" target-x="214" target-y="181"></path></mask><mask height="7.199997" id="mask5" maskUnits="userSpaceOnUse" node-id="249" width="152.40001" x="201.3" y="163.40001"><path d="M 214.00 181.00 L 392.00 181.00 L 392.00 412.00 L 214.00 412.00 Z" fill="#ffffff" fill-rule="evenodd" node-id="253" stroke="none" target-height="231" target-width="178" target-x="214" target-y="181"></path></mask><mask height="3.600006" id="mask6" maskUnits="userSpaceOnUse" node-id="257" width="211.20003" x="197.40001" y="183.7"><path d="M 214.00 181.00 L 392.00 181.00 L 392.00 412.00 L 214.00 412.00 Z" fill="#ffffff" fill-rule="evenodd" node-id="261" stroke="none" target-height="231" target-width="178" target-x="214" target-y="181"></path></mask><mask height="3.5999908" id="mask7" maskUnits="userSpaceOnUse" node-id="265" width="211.20003" x="197.40001" y="193.70001"><path d="M 214.00 181.00 L 392.00 181.00 L 392.00 412.00 L 214.00 412.00 Z" fill="#ffffff" fill-rule="evenodd" node-id="269" stroke="none" target-height="231" target-width="178" target-x="214" target-y="181"></path></mask><mask height="3.5999908" id="mask8" maskUnits="userSpaceOnUse" node-id="273" width="211.20003" x="197.40001" y="203.70001"><path d="M 214.00 181.00 L 392.00 181.00 L 392.00 412.00 L 214.00 412.00 Z" fill="#ffffff" fill-rule="evenodd" node-id="277" stroke="none" target-height="231" target-width="178" target-x="214" target-y="181"></path></mask><mask height="3.5999908" id="mask9" maskUnits="userSpaceOnUse" node-id="281" width="73.2" x="208.90001" y="213.70001"><path d="M 214.00 181.00 L 392.00 181.00 L 392.00 412.00 L 214.00 412.00 Z" fill="#ffffff" fill-rule="evenodd" node-id="285" stroke="none" target-height="231" target-width="178" target-x="214" target-y="181"></path></mask><mask height="7.1999817" id="mask10" maskUnits="userSpaceOnUse" node-id="289" width="153.59999" x="201.2" y="359.4"><path d="M 214.00 181.00 L 392.00 181.00 L 392.00 412.00 L 214.00 412.00 Z" fill="#ffffff" fill-rule="evenodd" node-id="293" stroke="none" target-height="231" target-width="178" target-x="214" target-y="181"></path></mask><mask height="3.5999756" id="mask11" maskUnits="userSpaceOnUse" node-id="297" width="213.59999" x="196.2" y="378.7"><path d="M 214.00 181.00 L 392.00 181.00 L 392.00 412.00 L 214.00 412.00 Z" fill="#ffffff" fill-rule="evenodd" node-id="301" stroke="none" target-height="231" target-width="178" target-x="214" target-y="181"></path></mask><mask height="3.5999756" id="mask12" maskUnits="userSpaceOnUse" node-id="305" width="213.59999" x="196.2" y="388.7"><path d="M 214.00 181.00 L 392.00 181.00 L 392.00 412.00 L 214.00 412.00 Z" fill="#ffffff" fill-rule="evenodd" node-id="309" stroke="none" target-height="231" target-width="178" target-x="214" target-y="181"></path></mask><mask height="3.5999756" id="mask13" maskUnits="userSpaceOnUse" node-id="313" width="213.59999" x="196.2" y="398.7"><path d="M 214.00 181.00 L 392.00 181.00 L 392.00 412.00 L 214.00 412.00 Z" fill="#ffffff" fill-rule="evenodd" node-id="317" stroke="none" target-height="231" target-width="178" target-x="214" target-y="181"></path></mask><mask height="3.5999756" id="mask14" maskUnits="userSpaceOnUse" node-id="321" width="172.80002" x="199.6" y="408.7"><path d="M 214.00 181.00 L 392.00 181.00 L 392.00 412.00 L 214.00 412.00 Z" fill="#ffffff" fill-rule="evenodd" node-id="325" stroke="none" target-height="231" target-width="178" target-x="214" target-y="181"></path></mask><mask height="7.398041" id="mask-10" maskUnits="userSpaceOnUse" node-id="98" width="2.3047485" x="451.27158" y="167.36423"><path d="M 451.92 174.15 C 453.66 167.35 453.64 168.36 452.93 167.98 L 452.93 167.98 C 451.18 174.77 451.21 173.77 451.92 174.15" fill="#ffffff" fill-rule="evenodd" node-id="332" stroke="none" target-height="7.416626" target-width="2.4812012" target-x="451.1833" target-y="167.35472"></path></mask><mask height="7.066986" id="mask-13" maskUnits="userSpaceOnUse" node-id="103" width="2.0747375" x="453.35236" y="167.52954"><path d="M 453.97 174.01 C 455.53 167.45 455.48 168.45 454.81 168.12 L 454.81 168.12 C 453.25 174.68 453.30 173.68 453.97 174.01" fill="#ffffff" fill-rule="evenodd" node-id="339" stroke="none" target-height="7.229126" target-width="2.2832947" target-x="453.248" target-y="167.44847"></path></mask></defs><path d="M 565.13 381.15 C 565.13 373.36 561.03 366.52 554.87 362.69 C 551.48 360.57 549.69 356.56 550.52 352.64 C 550.75 351.54 550.88 350.41 550.88 349.24 C 550.88 341.49 545.44 335.00 538.17 333.39 C 536.24 332.96 534.95 331.17 535.14 329.20 C 535.22 328.33 535.25 327.49 535.16 326.81 C 534.57 322.31 532.04 319.86 528.39 317.86 C 526.51 316.83 525.59 314.67 526.13 312.59 C 526.39 311.57 526.54 310.50 526.57 309.39 C 526.79 301.11 522.33 297.70 519.23 296.17 C 517.72 295.42 516.61 294.04 516.17 292.41 C 514.97 287.98 510.78 284.78 505.91 285.11 C 501.14 285.42 497.22 289.18 496.71 293.93 C 496.70 293.96 496.70 294.00 496.70 294.04 C 496.54 295.67 495.14 296.86 493.51 296.78 C 492.97 296.76 492.43 296.77 491.88 296.81 C 485.83 297.31 480.98 302.22 480.55 308.28 C 480.49 309.24 480.53 310.18 480.67 311.09 C 481.00 313.19 480.08 315.27 478.28 316.41 C 474.88 318.55 472.24 321.80 470.85 325.64 C 470.31 327.13 469.07 328.26 467.55 328.68 C 460.74 330.57 455.75 336.81 455.75 344.22 C 455.75 346.21 456.11 348.12 456.77 349.88 C 457.80 352.61 456.48 355.62 453.79 356.74 C 446.57 359.75 441.49 366.87 441.49 375.19 C 441.49 378.56 442.32 381.73 443.79 384.51 C 446.02 388.72 445.19 393.92 441.65 397.12 C 436.66 401.63 433.52 408.16 433.52 415.42 L 433.52 424.41 L 567.21 424.41 L 567.21 415.42 C 567.21 411.78 564.91 408.33 562.19 405.22 C 559.23 401.84 559.03 396.90 561.51 393.16 C 563.80 389.72 565.13 385.59 565.13 381.15" fill="#63bea7" fill-rule="evenodd" id="Fill-7" node-id="18" stroke="none" target-height="139.63034" target-width="133.68979" target-x="433.51797" target-y="284.78302"></path><path d="M 538.98 384.06 C 538.98 376.65 535.07 370.14 529.21 366.49 C 525.97 364.47 524.27 360.65 525.06 356.92 C 525.28 355.87 525.40 354.79 525.40 353.68 C 525.40 346.30 520.22 340.12 513.30 338.58 C 511.47 338.18 510.24 336.47 510.41 334.60 C 510.49 333.77 510.52 332.97 510.43 332.32 C 509.88 328.04 507.46 325.71 503.99 323.80 C 502.20 322.82 501.32 320.76 501.83 318.78 C 502.08 317.81 502.22 316.79 502.25 315.74 C 502.46 307.85 498.22 304.60 495.26 303.14 C 493.82 302.43 492.77 301.11 492.35 299.56 C 491.21 295.35 487.22 292.30 482.58 292.61 C 478.04 292.91 474.31 296.48 473.82 301.01 C 473.82 301.05 473.81 301.08 473.81 301.12 C 473.66 302.67 472.33 303.81 470.77 303.73 C 470.26 303.71 469.74 303.71 469.22 303.76 C 463.46 304.23 458.84 308.90 458.44 314.67 C 458.37 315.59 458.41 316.49 458.55 317.35 C 458.86 319.35 457.98 321.34 456.27 322.41 C 453.03 324.46 450.52 327.55 449.20 331.21 C 448.68 332.62 447.50 333.70 446.05 334.10 C 439.57 335.90 434.81 341.84 434.81 348.90 C 434.81 350.80 435.16 352.62 435.79 354.29 C 436.77 356.89 435.51 359.76 432.95 360.82 C 426.07 363.69 421.24 370.47 421.24 378.39 C 421.24 381.59 422.03 384.61 423.43 387.26 C 425.55 391.28 424.76 396.23 421.39 399.27 C 416.64 403.57 413.65 409.79 413.65 416.70 L 413.65 425.26 L 540.95 425.26 L 540.95 416.70 C 540.95 413.24 538.76 409.94 536.17 406.98 C 533.36 403.76 533.16 399.06 535.53 395.50 C 537.71 392.23 538.98 388.29 538.98 384.06" fill="#41b093" fill-rule="evenodd" id="Fill-9" node-id="19" stroke="none" target-height="132.95966" target-width="127.302765" target-x="413.64865" target-y="292.30264"></path><path d="M 159.58 376.74 C 159.58 368.26 155.48 360.82 149.32 356.65 C 145.92 354.34 144.13 349.98 144.97 345.71 C 145.20 344.52 145.32 343.29 145.32 342.02 C 145.32 333.58 139.89 326.52 132.62 324.76 C 130.69 324.29 129.40 322.34 129.58 320.21 C 129.67 319.25 129.69 318.34 129.61 317.60 C 129.02 312.71 126.49 310.04 122.84 307.87 C 120.96 306.74 120.04 304.39 120.58 302.13 C 120.84 301.02 120.99 299.85 121.02 298.65 C 121.24 289.64 116.78 285.93 113.68 284.26 C 112.16 283.44 111.06 281.94 110.62 280.16 C 109.42 275.35 105.23 271.87 100.35 272.22 C 95.59 272.56 91.67 276.65 91.16 281.82 C 91.15 281.86 91.15 281.90 91.15 281.94 C 90.99 283.71 89.59 285.01 87.95 284.93 C 87.42 284.90 86.88 284.91 86.33 284.96 C 80.28 285.50 75.42 290.84 75.00 297.43 C 74.93 298.48 74.98 299.51 75.12 300.50 C 75.45 302.78 74.52 305.05 72.73 306.28 C 69.33 308.62 66.69 312.15 65.30 316.33 C 64.76 317.95 63.52 319.18 61.99 319.64 C 55.19 321.70 50.19 328.49 50.19 336.55 C 50.19 338.72 50.56 340.80 51.22 342.72 C 52.25 345.68 50.93 348.96 48.24 350.18 C 41.02 353.45 35.94 361.20 35.94 370.25 C 35.94 373.92 36.77 377.37 38.24 380.40 C 40.47 384.98 39.64 390.64 36.10 394.12 C 31.11 399.03 27.97 406.14 27.97 414.04 L 27.97 423.82 L 161.66 423.82 L 161.66 414.04 C 161.66 410.08 159.36 406.32 156.64 402.93 C 153.68 399.25 153.48 393.88 155.96 389.81 C 158.25 386.07 159.58 381.57 159.58 376.74" fill="#63bea7" fill-rule="evenodd" id="Fill-11" node-id="20" stroke="none" target-height="151.95837" target-width="133.68976" target-x="27.967056" target-y="271.86597"></path><path d="M 171.97 380.96 C 171.97 373.38 168.31 366.73 162.80 362.99 C 159.76 360.93 158.16 357.03 158.90 353.21 C 159.11 352.15 159.22 351.04 159.22 349.91 C 159.22 342.36 154.36 336.05 147.86 334.48 C 146.14 334.06 144.98 332.32 145.15 330.41 C 145.22 329.55 145.25 328.74 145.17 328.07 C 144.65 323.70 142.38 321.32 139.12 319.37 C 137.44 318.37 136.61 316.26 137.09 314.24 C 137.33 313.25 137.46 312.20 137.49 311.13 C 137.68 303.07 133.69 299.75 130.92 298.26 C 129.57 297.53 128.58 296.18 128.19 294.60 C 127.11 290.29 123.37 287.18 119.01 287.49 C 114.75 287.80 111.24 291.45 110.79 296.08 C 110.78 296.11 110.78 296.15 110.78 296.19 C 110.63 297.77 109.38 298.94 107.92 298.86 C 107.44 298.83 106.96 298.84 106.47 298.89 C 101.06 299.37 96.72 304.15 96.34 310.04 C 96.28 310.98 96.32 311.90 96.45 312.78 C 96.74 314.82 95.91 316.85 94.31 317.95 C 91.27 320.04 88.90 323.20 87.66 326.94 C 87.18 328.39 86.07 329.49 84.71 329.90 C 78.62 331.74 74.16 337.81 74.16 345.02 C 74.16 346.96 74.48 348.82 75.07 350.53 C 75.99 353.19 74.81 356.11 72.41 357.20 C 65.95 360.13 61.41 367.07 61.41 375.16 C 61.41 378.43 62.15 381.52 63.47 384.23 C 65.46 388.33 64.72 393.39 61.56 396.50 C 57.09 400.89 54.28 407.24 54.28 414.31 L 54.28 423.06 L 173.83 423.06 L 173.83 414.31 C 173.83 410.77 171.77 407.41 169.34 404.38 C 166.70 401.09 166.51 396.29 168.74 392.65 C 170.78 389.30 171.97 385.28 171.97 380.96" fill="#41b093" fill-rule="evenodd" id="Fill-13" node-id="21" stroke="none" target-height="135.88098" target-width="119.54472" target-x="54.281696" target-y="287.17978"></path><path d="M 587.08 428.68 L 12.68 428.68 C 11.20 428.68 10.00 427.48 10.00 426.00 C 10.00 424.52 11.20 423.33 12.68 423.33 L 587.08 423.33 C 588.56 423.33 589.76 424.52 589.76 426.00 C 589.76 427.48 588.56 428.68 587.08 428.68" fill="#9fd4e0" fill-rule="evenodd" id="Fill-15" node-id="22" stroke="none" target-height="5.3573303" target-width="579.75867" target-x="10.000042" target-y="423.32544"></path><path d="M 487.65 439.89 L 121.98 439.89 C 107.39 439.89 95.56 428.06 95.56 413.46 L 95.56 201.26 C 95.56 186.66 107.39 174.83 121.98 174.83 L 487.65 174.83 C 502.25 174.83 514.08 186.66 514.08 201.26 L 514.08 413.46 C 514.08 428.06 502.25 439.89 487.65 439.89" fill="#0c252e" fill-rule="evenodd" id="Fill-21" node-id="23" stroke="none" target-height="265.0609" target-width="418.5227" target-x="95.55766" target-y="174.82817"></path><path d="M 490.76 437.06 L 120.99 437.06 C 108.04 437.06 97.54 426.56 97.54 413.61 L 97.54 198.31 C 97.54 185.36 108.04 174.86 120.99 174.86 L 490.76 174.86 C 503.71 174.86 514.21 185.36 514.21 198.31 L 514.21 413.61 C 514.21 426.56 503.71 437.06 490.76 437.06" fill="#184657" fill-rule="evenodd" id="Fill-23" node-id="24" stroke="none" target-height="262.20303" target-width="416.67163" target-x="97.5384" target-y="174.85666"></path><path d="M 124.59 431.19 L 487.16 431.19 L 487.16 180.72 L 124.59 180.72 Z" fill="#ffffff" fill-rule="evenodd" id="Fill-25" node-id="25" stroke="none" target-height="250.47243" target-width="362.5665" target-x="124.59063" target-y="180.72185"></path><path d="M 507.60 140.19 C 509.56 140.19 511.15 138.60 511.15 136.63 C 511.15 134.67 509.56 133.08 507.60 133.08 C 507.50 133.08 507.40 133.09 507.30 133.10 C 506.58 131.02 504.60 129.52 502.27 129.52 C 499.94 129.52 497.95 131.02 497.23 133.11 C 497.09 133.09 496.94 133.08 496.79 133.08 C 496.23 133.08 495.70 133.22 495.23 133.45 C 494.46 132.01 492.94 131.03 491.19 131.03 C 488.67 131.03 486.62 133.08 486.62 135.61 C 486.62 138.14 488.67 140.19 491.19 140.19 L 507.60 140.19 Z" fill="#9fd4e0" fill-rule="evenodd" id="Fill-28" node-id="26" stroke="none" target-height="10.664047" target-width="24.538605" target-x="486.61624" target-y="129.52258"></path><path d="M 172.04 250.78 C 174.00 250.78 175.59 249.18 175.59 247.22 C 175.59 245.26 174.00 243.67 172.04 243.67 C 171.94 243.67 171.84 243.68 171.74 243.69 C 171.01 241.60 169.03 240.11 166.71 240.11 C 164.37 240.11 162.39 241.61 161.67 243.70 C 161.52 243.68 161.38 243.67 161.23 243.67 C 160.67 243.67 160.13 243.80 159.66 244.04 C 158.89 242.60 157.37 241.62 155.63 241.62 C 153.10 241.62 151.05 243.67 151.05 246.20 C 151.05 248.73 153.10 250.78 155.63 250.78 L 172.04 250.78 Z" fill="#9fd4e0" fill-rule="evenodd" id="Fill-29" node-id="27" stroke="none" target-height="10.6640625" target-width="24.53859" target-x="151.05142" target-y="240.11143"></path><path d="M 137.66 130.88 C 135.58 130.88 133.90 129.19 133.90 127.11 C 133.90 125.03 135.58 123.35 137.66 123.35 C 137.77 123.35 137.88 123.35 137.98 123.36 C 138.75 121.15 140.85 119.57 143.32 119.57 C 145.80 119.57 147.90 121.16 148.67 123.38 C 148.82 123.36 148.97 123.35 149.13 123.35 C 149.73 123.35 150.29 123.49 150.79 123.73 C 151.61 122.21 153.22 121.17 155.07 121.17 C 157.75 121.17 159.93 123.35 159.93 126.03 C 159.93 128.71 157.75 130.88 155.07 130.88 L 137.66 130.88 Z" fill="#9fd4e0" fill-rule="evenodd" id="Fill-30" node-id="28" stroke="none" target-height="11.312035" target-width="26.028732" target-x="133.89693" target-y="119.57012"></path><path d="M 300.43 97.49 C 304.19 97.49 307.24 94.44 307.24 90.68 C 307.24 86.92 304.19 83.87 300.43 83.87 C 299.62 83.87 298.83 84.02 298.11 84.29 C 296.92 79.77 292.81 76.43 287.92 76.43 C 283.19 76.43 279.19 79.55 277.86 83.85 C 276.76 83.19 275.48 82.81 274.11 82.81 C 270.05 82.81 266.77 86.10 266.77 90.15 C 266.77 94.21 270.05 97.49 274.11 97.49 L 300.43 97.49 Z" fill="#9fd4e0" fill-rule="evenodd" id="Fill-31" node-id="29" stroke="none" target-height="21.059288" target-width="40.47702" target-x="266.7667" target-y="76.432785"></path><path d="M 80.60 174.98 C 84.38 174.98 87.43 171.92 87.43 168.15 C 87.43 164.38 84.38 161.33 80.60 161.33 C 79.78 161.33 79.00 161.48 78.27 161.74 C 77.09 157.21 72.97 153.87 68.06 153.87 C 63.32 153.87 59.31 157.00 57.98 161.30 C 56.87 160.65 55.59 160.26 54.21 160.26 C 50.15 160.26 46.85 163.56 46.85 167.62 C 46.85 171.69 50.15 174.98 54.21 174.98 L 80.60 174.98 Z" fill="#9fd4e0" fill-rule="evenodd" id="Fill-32" node-id="30" stroke="none" target-height="21.112381" target-width="40.577812" target-x="46.85383" target-y="153.86952"></path><g node-id="341"><g node-id="347"><g node-id="370"><path d="M 207.41 389.32 C 207.41 381.53 203.31 374.70 197.15 370.86 C 193.75 368.74 191.96 364.73 192.79 360.81 C 193.03 359.71 193.15 358.58 193.15 357.41 C 193.15 349.66 187.71 343.17 180.44 341.56 C 178.52 341.13 177.22 339.34 177.41 337.37 C 177.49 336.50 177.52 335.66 177.43 334.98 C 176.85 330.49 174.31 328.03 170.67 326.03 C 168.79 325.00 167.87 322.84 168.40 320.76 C 168.66 319.74 168.81 318.67 168.84 317.56 C 169.06 309.29 164.60 305.87 161.50 304.34 C 159.99 303.59 158.89 302.21 158.44 300.58 C 157.24 296.15 153.05 292.95 148.18 293.28 C 143.41 293.59 139.49 297.35 138.98 302.10 C 138.98 302.14 138.97 302.17 138.97 302.21 C 138.81 303.84 137.41 305.03 135.78 304.96 C 135.24 304.93 134.70 304.94 134.15 304.98 C 128.10 305.48 123.25 310.39 122.83 316.45 C 122.76 317.41 122.80 318.35 122.95 319.26 C 123.27 321.36 122.35 323.44 120.56 324.58 C 117.15 326.72 114.51 329.97 113.12 333.81 C 112.59 335.30 111.34 336.43 109.82 336.85 C 103.01 338.74 98.02 344.98 98.02 352.39 C 98.02 354.38 98.38 356.29 99.04 358.06 C 100.07 360.78 98.75 363.79 96.06 364.91 C 88.84 367.92 83.76 375.04 83.76 383.36 C 83.76 386.73 84.59 389.90 86.07 392.68 C 88.29 396.89 87.46 402.09 83.93 405.29 C 78.93 409.80 75.79 416.33 75.79 423.59 L 75.79 432.58 L 209.48 432.58 L 209.48 423.59 C 209.48 419.95 207.18 416.50 204.46 413.39 C 201.51 410.01 201.30 405.07 203.79 401.33 C 206.07 397.89 207.41 393.76 207.41 389.32" fill="#9ad5c6" fill-rule="evenodd" group-id="1,7,30" id="Fill-33" node-id="36" stroke="none" target-height="139.63037" target-width="133.68976" target-x="75.791504" target-y="292.95377"></path></g></g><path d="M 540.82 335.16 C 540.82 326.87 536.46 319.61 529.91 315.53 C 526.29 313.27 524.39 309.01 525.28 304.84 C 525.53 303.67 525.66 302.47 525.66 301.23 C 525.66 292.98 519.88 286.08 512.15 284.36 C 510.10 283.91 508.72 282.00 508.92 279.92 C 509.00 278.98 509.03 278.09 508.94 277.37 C 508.32 272.59 505.63 269.98 501.75 267.85 C 499.75 266.76 498.77 264.46 499.34 262.25 C 499.62 261.16 499.77 260.02 499.80 258.85 C 500.04 250.04 495.30 246.42 492.00 244.78 C 490.39 243.99 489.22 242.52 488.75 240.78 C 487.47 236.08 483.02 232.68 477.83 233.02 C 472.76 233.36 468.60 237.35 468.05 242.40 C 468.05 242.44 468.04 242.48 468.04 242.52 C 467.87 244.25 466.38 245.52 464.64 245.44 C 464.08 245.41 463.50 245.42 462.91 245.47 C 456.48 246.00 451.32 251.22 450.87 257.66 C 450.80 258.68 450.84 259.69 451.00 260.65 C 451.35 262.88 450.36 265.10 448.45 266.31 C 444.84 268.59 442.02 272.04 440.55 276.13 C 439.98 277.71 438.66 278.91 437.04 279.36 C 429.80 281.37 424.49 288.01 424.49 295.88 C 424.49 298.01 424.87 300.04 425.58 301.91 C 426.67 304.81 425.27 308.01 422.41 309.20 C 414.73 312.40 409.32 319.98 409.32 328.82 C 409.32 332.40 410.21 335.77 411.78 338.73 C 414.15 343.21 413.26 348.75 409.50 352.14 C 404.19 356.94 392.91 371.13 405.17 385.66 C 417.69 400.49 411.77 433.00 411.77 433.00 L 538.70 433.00 L 543.03 371.61 C 543.03 367.74 540.58 364.06 537.69 360.76 C 534.55 357.16 534.33 351.91 536.97 347.93 C 539.40 344.28 540.82 339.88 540.82 335.16" fill="#9ad5c6" fill-rule="evenodd" group-id="1,8,32" id="Fill-35" node-id="41" stroke="none" target-height="200.32202" target-width="150.11975" target-x="392.9054" target-y="232.67584"></path></g><g node-id="342"><g node-id="351"><path d="M 215.00 265.00 L 342.00 265.00 L 342.00 259.00 L 215.00 259.00 Z" fill="#fcc14a" fill-rule="evenodd" group-id="2,11" id="Fill-1578" node-id="51" stroke="none" target-height="6" target-width="127" target-x="215" target-y="259"></path></g><g node-id="352"><path d="M 215.00 282.00 L 392.00 282.00 L 392.00 279.00 L 215.00 279.00 Z" fill="#7cabbd" fill-rule="evenodd" group-id="2,12" id="Fill-1580" node-id="52" stroke="none" target-height="3" target-width="177" target-x="215" target-y="279"></path></g><g node-id="353"><path d="M 215.00 292.00 L 392.00 292.00 L 392.00 289.00 L 215.00 289.00 Z" fill="#7cabbd" fill-rule="evenodd" group-id="2,13" id="Fill-1581" node-id="53" stroke="none" target-height="3" target-width="177" target-x="215" target-y="289"></path></g><g node-id="354"><path d="M 215.00 302.00 L 392.00 302.00 L 392.00 299.00 L 215.00 299.00 Z" fill="#7cabbd" fill-rule="evenodd" group-id="2,14" id="Fill-1582" node-id="54" stroke="none" target-height="3" target-width="177" target-x="215" target-y="299"></path></g><g node-id="355"><path d="M 215.00 312.00 L 321.00 312.00 L 321.00 309.00 L 215.00 309.00 Z" fill="#7cabbd" fill-rule="evenodd" group-id="2,15" id="Fill-1583" node-id="55" stroke="none" target-height="3" target-width="106" target-x="215" target-y="309"></path></g><g node-id="356"><path d="M 214.00 170.00 L 341.00 170.00 L 341.00 164.00 L 214.00 164.00 Z" fill="#035e80" fill-rule="evenodd" group-id="2,16" id="Fill-1584" node-id="56" stroke="none" target-height="6" target-width="127" target-x="214" target-y="164"></path></g><g node-id="357"><path d="M 215.00 187.00 L 391.00 187.00 L 391.00 184.00 L 215.00 184.00 Z" fill="#7cabbd" fill-rule="evenodd" group-id="2,17" id="Fill-1585" node-id="57" stroke="none" target-height="3" target-width="176" target-x="215" target-y="184"></path></g><g node-id="358"><path d="M 215.00 197.00 L 391.00 197.00 L 391.00 194.00 L 215.00 194.00 Z" fill="#7cabbd" fill-rule="evenodd" group-id="2,18" id="Fill-1586" node-id="58" stroke="none" target-height="3" target-width="176" target-x="215" target-y="194"></path></g><g node-id="359"><path d="M 215.00 207.00 L 391.00 207.00 L 391.00 204.00 L 215.00 204.00 Z" fill="#7cabbd" fill-rule="evenodd" group-id="2,19" id="Fill-1587" node-id="59" stroke="none" target-height="3" target-width="176" target-x="215" target-y="204"></path></g><g node-id="360"><path d="M 215.00 217.00 L 276.00 217.00 L 276.00 214.00 L 215.00 214.00 Z" fill="#7cabbd" fill-rule="evenodd" group-id="2,20" id="Fill-1588" node-id="60" stroke="none" target-height="3" target-width="61" target-x="215" target-y="214"></path></g><g node-id="361"><path d="M 214.00 366.00 L 342.00 366.00 L 342.00 360.00 L 214.00 360.00 Z" fill="#e85f5b" fill-rule="evenodd" group-id="2,21" id="Fill-1589" node-id="61" stroke="none" target-height="6" target-width="128" target-x="214" target-y="360"></path></g><g node-id="362"><path d="M 214.00 382.00 L 392.00 382.00 L 392.00 379.00 L 214.00 379.00 Z" fill="#7cabbd" fill-rule="evenodd" group-id="2,22" id="Fill-1590" node-id="62" stroke="none" target-height="3" target-width="178" target-x="214" target-y="379"></path></g><g node-id="363"><path d="M 214.00 392.00 L 392.00 392.00 L 392.00 389.00 L 214.00 389.00 Z" fill="#7cabbd" fill-rule="evenodd" group-id="2,23" id="Fill-1591" node-id="63" stroke="none" target-height="3" target-width="178" target-x="214" target-y="389"></path></g><g node-id="364"><path d="M 214.00 402.00 L 392.00 402.00 L 392.00 399.00 L 214.00 399.00 Z" fill="#7cabbd" fill-rule="evenodd" group-id="2,24" id="Fill-1592" node-id="64" stroke="none" target-height="3" target-width="178" target-x="214" target-y="399"></path></g><path d="M 214.00 412.00 L 358.00 412.00 L 358.00 409.00 L 214.00 409.00 Z" fill="#7cabbd" fill-rule="evenodd" group-id="2,25" id="Fill-1593" node-id="65" stroke="none" target-height="3" target-width="144" target-x="214" target-y="409"></path></g><g node-id="343"><path d="M 405.68 100.65 C 404.81 97.40 405.27 79.25 405.27 79.25 L 391.04 79.77 C 391.04 79.77 390.87 97.69 390.49 100.56 C 390.12 103.43 385.22 104.57 379.47 107.50 C 378.68 107.90 377.79 108.83 377.01 109.50 C 377.94 111.58 397.10 118.57 398.47 120.37 C 399.97 122.35 414.21 111.83 415.87 107.26 C 409.17 103.59 406.50 103.70 405.68 100.65" fill="#ffd6cb" fill-rule="evenodd" group-id="3" id="Fill-1596" node-id="67" stroke="none" target-height="43.101334" target-width="38.855377" target-x="377.01263" target-y="79.24775"></path><path d="M 404.54 78.93 L 391.39 79.41 C 391.39 79.41 391.34 83.62 391.24 88.72 C 392.25 91.10 394.27 94.91 397.80 94.86 C 401.85 94.79 403.13 91.26 404.40 89.17 C 404.36 83.81 404.54 78.93 404.54 78.93" fill="#f4b6a5" fill-rule="evenodd" group-id="3" id="Fill-1599" node-id="68" stroke="none" target-height="15.9857025" target-width="13.307037" target-x="391.23764" target-y="78.92911"></path><path d="M 394.65 79.35 C 394.47 81.90 392.26 83.82 389.71 83.64 C 387.17 83.46 385.25 81.25 385.42 78.71 C 385.60 76.16 387.81 74.24 390.36 74.42 C 392.91 74.60 394.83 76.81 394.65 79.35" fill="#ffccbe" fill-rule="evenodd" group-id="3" id="Fill-1600" node-id="69" stroke="none" target-height="9.580887" target-width="9.580902" target-x="385.24542" target-y="74.238846"></path><path d="M 392.47 79.20 C 392.37 80.54 391.21 81.55 389.87 81.46 C 388.52 81.37 387.51 80.20 387.61 78.86 C 387.70 77.52 388.86 76.50 390.21 76.60 C 391.55 76.69 392.56 77.86 392.47 79.20" fill="#ed6d53" fill-rule="evenodd" group-id="3" id="Fill-1601" node-id="70" stroke="none" target-height="5.049103" target-width="5.048706" target-x="387.5118" target-y="76.504486"></path><path d="M 387.20 77.84 C 385.09 75.99 384.60 69.33 388.47 66.65 C 389.88 65.67 391.80 65.34 392.19 63.94 C 392.96 61.23 397.08 59.22 400.12 60.74 C 404.04 62.70 405.94 61.19 408.19 58.91 C 410.61 56.45 412.12 53.85 418.79 55.02 C 425.46 56.19 427.42 55.40 428.67 52.23 C 429.93 49.05 436.04 46.47 441.70 50.42 C 447.36 54.37 449.16 57.47 452.98 56.05 C 456.79 54.63 460.66 52.44 464.04 55.99 C 467.42 59.54 464.64 66.45 460.22 66.37 C 455.80 66.29 458.01 71.55 459.19 74.72 C 460.38 77.88 457.10 82.70 451.52 80.77 C 445.94 78.83 444.70 80.44 442.89 83.35 C 441.07 86.25 436.31 86.11 434.00 84.40 C 431.69 82.69 428.88 81.33 425.57 83.36 C 422.26 85.39 421.16 86.67 417.27 85.04 C 413.38 83.40 412.61 83.99 410.40 85.17 C 408.19 86.35 403.76 84.67 403.76 84.67 L 387.20 77.84 Z" fill="#5b1902" fill-rule="evenodd" group-id="3" id="Fill-1602" node-id="71" stroke="none" target-height="40.204876" target-width="82.81586" target-x="384.60474" target-y="46.469837"></path><path d="M 398.28 79.90 L 398.00 76.50 L 410.97 77.33 C 416.17 74.30 417.41 74.33 421.51 75.40 C 425.62 76.46 425.08 71.61 429.39 70.16 C 433.70 68.71 434.54 72.57 438.50 72.46 C 442.47 72.34 441.30 68.42 446.35 68.73 C 451.12 69.01 451.69 72.60 458.38 72.50 C 458.65 73.28 458.94 74.05 459.19 74.72 C 460.38 77.88 457.10 82.70 451.52 80.77 C 445.94 78.83 444.70 80.44 442.89 83.35 C 441.07 86.25 436.31 86.11 434.00 84.40 C 431.69 82.69 428.88 81.33 425.57 83.36 C 422.26 85.39 421.16 86.67 417.27 85.04 C 413.38 83.40 412.76 83.78 410.55 84.96 C 408.35 86.14 404.03 85.10 404.03 85.10 L 398.28 79.90 Z" fill="#380e00" fill-rule="evenodd" group-id="3" id="Fill-1603" node-id="72" stroke="none" target-height="18.254501" target-width="62.378845" target-x="397.99933" target-y="68.42025"></path><path d="M 401.71 79.35 C 401.89 81.90 404.10 83.82 406.65 83.64 C 409.19 83.46 411.11 81.25 410.93 78.71 C 410.76 76.16 408.55 74.24 406.00 74.42 C 403.45 74.60 401.53 76.81 401.71 79.35" fill="#f4b6a5" fill-rule="evenodd" group-id="3" id="Fill-1604" node-id="73" stroke="none" target-height="9.580887" target-width="9.581299" target-x="401.53165" target-y="74.238846"></path><path d="M 403.89 79.20 C 403.99 80.54 405.15 81.55 406.49 81.46 C 407.84 81.37 408.85 80.20 408.75 78.86 C 408.66 77.52 407.49 76.50 406.15 76.60 C 404.81 76.69 403.80 77.86 403.89 79.20" fill="#ed6d53" fill-rule="evenodd" group-id="3" id="Fill-1605" node-id="74" stroke="none" target-height="5.049103" target-width="5.0486755" target-x="403.79788" target-y="76.504486"></path><path d="M 389.45 81.00 C 389.90 87.50 392.16 92.20 398.76 92.09 C 402.89 92.03 406.39 87.47 406.35 80.95 C 406.31 74.12 404.88 68.64 397.16 68.63 C 389.67 68.63 388.99 74.50 389.45 81.00" fill="#ffd6cb" fill-rule="evenodd" group-id="3" id="Fill-1606" node-id="75" stroke="none" target-height="23.568687" target-width="17.396606" target-x="388.9902" target-y="68.62726"></path><path d="M 397.99 80.91 L 396.40 84.02 C 396.22 84.39 396.48 84.82 396.89 84.83 L 398.77 84.85 L 397.99 80.91 Z" fill="#f4b6a5" fill-rule="evenodd" group-id="3" id="Fill-1609" node-id="76" stroke="none" target-height="3.9368973" target-width="2.5542297" target-x="396.21518" target-y="80.913605"></path><path d="M 410.80 80.18 C 407.06 81.70 405.26 80.37 403.52 79.37 C 401.78 78.37 402.00 73.62 399.45 72.82 C 396.89 72.03 396.26 74.05 393.51 73.35 C 390.30 72.53 389.66 74.45 389.66 74.45 C 389.66 74.45 389.57 72.06 394.30 70.37 C 399.04 68.67 404.44 68.65 407.23 71.58 C 408.15 72.54 408.12 73.99 409.15 74.93 C 411.70 77.24 410.80 80.18 410.80 80.18" fill="#380e00" fill-rule="evenodd" group-id="3" id="Fill-1610" node-id="77" stroke="none" target-height="13.049835" target-width="22.128754" target-x="389.56955" target-y="68.65148"></path><path d="M 404.66 78.69 C 404.43 78.66 404.22 78.61 404.01 78.56 C 403.79 78.53 403.58 78.48 403.37 78.45 C 402.94 78.40 402.52 78.36 402.10 78.36 C 401.68 78.36 401.27 78.40 400.86 78.49 C 400.45 78.57 400.04 78.70 399.67 78.87 L 399.64 78.88 C 399.56 78.92 399.46 78.89 399.42 78.80 C 399.39 78.74 399.40 78.66 399.45 78.61 C 399.79 78.24 400.22 78.01 400.68 77.85 C 401.13 77.69 401.62 77.62 402.10 77.61 C 402.58 77.62 403.05 77.68 403.51 77.81 C 403.73 77.87 403.95 77.97 404.17 78.05 C 404.38 78.15 404.59 78.26 404.79 78.38 C 404.87 78.43 404.89 78.53 404.85 78.61 C 404.81 78.68 404.74 78.71 404.67 78.70 L 404.66 78.69 Z" fill="#333333" fill-rule="evenodd" group-id="3" id="Fill-1611" node-id="78" stroke="none" target-height="1.3146439" target-width="5.508728" target-x="399.3855" target-y="77.61035"></path><path d="M 400.92 80.91 C 401.21 80.96 401.48 81.02 401.75 81.06 C 402.02 81.10 402.28 81.12 402.55 81.11 C 402.82 81.11 403.08 81.08 403.34 81.02 C 403.59 80.96 403.86 80.88 404.09 80.76 L 404.11 80.75 C 404.17 80.73 404.24 80.75 404.26 80.81 C 404.28 80.85 404.28 80.90 404.24 80.93 C 403.81 81.40 403.17 81.59 402.56 81.61 C 402.25 81.61 401.95 81.57 401.65 81.49 C 401.51 81.45 401.37 81.39 401.23 81.33 C 401.10 81.27 400.96 81.20 400.84 81.12 C 400.78 81.09 400.76 81.02 400.80 80.96 C 400.82 80.92 400.87 80.90 400.92 80.91 L 400.92 80.91 Z" fill="#1a1a1a" fill-rule="evenodd" group-id="3" id="Fill-1612" node-id="79" stroke="none" target-height="0.88487244" target-width="3.5203857" target-x="400.7644" target-y="80.72618"></path><path d="M 391.87 80.91 C 392.15 80.96 392.42 81.02 392.69 81.06 C 392.96 81.10 393.23 81.12 393.50 81.11 C 393.76 81.11 394.02 81.08 394.28 81.02 C 394.54 80.96 394.81 80.88 395.04 80.76 L 395.06 80.75 C 395.11 80.73 395.18 80.75 395.21 80.81 C 395.23 80.85 395.22 80.90 395.19 80.93 C 394.75 81.40 394.12 81.59 393.50 81.61 C 393.20 81.61 392.89 81.57 392.60 81.49 C 392.45 81.45 392.32 81.39 392.18 81.33 C 392.04 81.27 391.91 81.20 391.78 81.12 C 391.73 81.09 391.71 81.02 391.74 80.96 C 391.77 80.92 391.82 80.90 391.86 80.91 L 391.87 80.91 Z" fill="#1a1a1a" fill-rule="evenodd" group-id="3" id="Fill-1613" node-id="80" stroke="none" target-height="0.88487244" target-width="3.5199585" target-x="391.71033" target-y="80.72618"></path><path d="M 395.94 78.57 C 395.74 78.54 395.55 78.50 395.37 78.47 C 395.18 78.44 394.99 78.40 394.80 78.38 C 394.43 78.33 394.07 78.29 393.70 78.29 C 393.33 78.28 392.97 78.31 392.61 78.36 C 392.26 78.42 391.89 78.52 391.56 78.65 L 391.53 78.66 C 391.44 78.69 391.34 78.65 391.31 78.56 C 391.29 78.49 391.30 78.42 391.35 78.38 C 391.66 78.05 392.04 77.86 392.45 77.72 C 392.86 77.59 393.29 77.54 393.71 77.54 C 394.13 77.55 394.55 77.61 394.95 77.73 C 395.15 77.79 395.34 77.88 395.53 77.95 C 395.71 78.04 395.90 78.14 396.07 78.25 C 396.15 78.30 396.17 78.41 396.12 78.49 C 396.09 78.55 396.02 78.58 395.96 78.57 L 395.94 78.57 Z" fill="#333333" fill-rule="evenodd" group-id="3" id="Fill-1614" node-id="81" stroke="none" target-height="1.1541061" target-width="4.8889465" target-x="391.28528" target-y="77.536255"></path><path d="M 395.78 86.71 C 395.77 87.02 396.85 87.30 398.14 87.27 C 399.43 87.25 400.44 86.99 400.46 86.62 C 400.48 86.17 399.41 86.69 398.12 86.72 C 396.83 86.74 395.80 86.24 395.78 86.71" fill="#ed6d53" fill-rule="evenodd" group-id="3" id="Fill-1615" node-id="82" stroke="none" target-height="1.1283798" target-width="4.708496" target-x="395.7715" target-y="86.169426"></path><path d="M 410.88 77.35 C 407.13 78.87 405.66 79.31 403.92 78.31 C 402.18 77.31 402.41 72.56 399.85 71.76 C 397.29 70.97 396.71 73.29 393.89 72.95 C 390.88 72.60 389.52 73.93 389.52 73.93 C 389.52 73.93 388.53 69.45 393.26 67.75 C 398.00 66.06 404.84 67.59 407.64 70.52 C 410.43 73.44 410.88 77.35 410.88 77.35" fill="#5b1902" fill-rule="evenodd" group-id="3" id="Fill-1618" node-id="83" stroke="none" target-height="13.246475" target-width="22.35196" target-x="388.52686" target-y="66.06093"></path><path d="M 382.36 179.31 C 373.70 179.31 371.47 170.18 373.33 160.78 C 375.52 149.77 386.51 144.52 396.74 144.52 C 406.96 144.52 417.62 150.82 420.52 161.63 C 422.78 170.04 419.77 179.31 411.11 179.31 L 382.36 179.31 Z" fill="#035e80" fill-rule="evenodd" group-id="3" id="Fill-1619" node-id="84" stroke="none" target-height="34.798996" target-width="51.308258" target-x="371.46878" target-y="144.51514"></path><path d="M 409.62 178.75 L 381.77 178.75 C 379.85 178.75 378.29 177.18 378.29 175.27 L 378.29 166.67 C 378.29 164.75 379.85 163.19 381.77 163.19 L 409.62 163.19 C 411.54 163.19 413.10 164.75 413.10 166.67 L 413.10 175.27 C 413.10 177.18 411.54 178.75 409.62 178.75" fill="#003245" fill-rule="evenodd" group-id="3" id="Fill-1620" node-id="85" stroke="none" target-height="15.560471" target-width="34.816833" target-x="378.28668" target-y="163.18768"></path><path d="M 387.53 103.49 C 387.53 103.49 378.85 106.65 375.79 109.86 C 373.20 112.56 372.16 114.29 372.16 114.29 L 381.02 143.10 L 412.52 143.10 L 423.55 114.24 C 423.55 114.24 421.15 109.86 415.77 106.93 C 410.40 104.01 408.89 103.73 408.28 103.35 C 408.28 103.35 400.59 112.73 398.61 112.83 C 396.63 112.92 387.53 103.49 387.53 103.49" fill="#e289a9" fill-rule="evenodd" group-id="3" id="Fill-1621" node-id="86" stroke="none" target-height="39.7502" target-width="51.397034" target-x="372.15692" target-y="103.350296"></path><path d="M 398.61 113.68 C 401.00 113.72 407.82 105.01 408.89 103.63 C 408.61 103.52 408.42 103.44 408.28 103.35 C 408.28 103.35 400.59 112.73 398.61 112.83 C 396.63 112.92 387.53 103.49 387.53 103.49 C 387.53 103.49 387.29 103.58 386.87 103.74 C 387.87 104.81 396.17 113.63 398.61 113.68" fill="#faf8dc" fill-rule="evenodd" group-id="3" id="Fill-1622" node-id="87" stroke="none" target-height="10.370338" target-width="22.012604" target-x="386.87363" target-y="103.35022"></path><path d="M 372.35 114.34 C 373.67 119.43 378.67 120.00 379.51 126.60 C 375.17 134.61 370.74 146.59 370.74 146.59 C 370.74 146.59 387.62 147.44 394.41 149.51 L 394.22 157.53 L 366.69 157.53 C 360.65 157.53 357.76 153.42 359.71 144.14 C 362.16 132.44 368.76 119.34 372.35 114.34" fill="#ffd6cb" fill-rule="evenodd" group-id="3" id="Fill-1623" node-id="88" stroke="none" target-height="43.192177" target-width="36.65091" target-x="357.76236" target-y="114.33694"></path><path d="M 423.23 114.34 C 422.80 119.52 414.66 123.13 416.07 126.60 C 419.27 134.52 424.31 146.78 424.31 146.78 C 424.31 146.78 407.60 146.31 401.37 148.29 L 401.37 157.53 L 428.89 157.53 C 434.93 157.53 437.89 152.99 435.72 143.76 C 433.59 134.71 429.31 122.82 423.23 114.34" fill="#ffd6cb" fill-rule="evenodd" group-id="3" id="Fill-1624" node-id="89" stroke="none" target-height="43.192177" target-width="36.519775" target-x="401.37393" target-y="114.33694"></path><path d="M 379.51 164.52 C 386.28 163.51 388.97 170.04 391.45 180.32 C 393.94 190.61 400.41 218.15 403.65 227.61 C 406.63 236.31 403.15 233.58 401.66 238.31 C 400.27 242.70 398.02 245.97 394.69 246.15 C 392.33 246.27 394.65 239.05 397.30 233.58 C 396.93 228.48 391.58 218.52 383.24 200.48 C 375.04 182.72 374.86 179.91 374.37 173.94 C 373.87 167.96 377.02 164.89 379.51 164.52" fill="#ffd1c4" fill-rule="evenodd" group-id="3" id="Fill-1625" node-id="90" stroke="none" target-height="82.76607" target-width="32.75879" target-x="373.86816" target-y="163.5055"></path><path d="M 403.28 164.27 C 409.62 164.27 409.50 176.84 409.12 183.56 C 408.75 190.28 404.77 211.43 399.79 225.74 C 394.81 240.05 394.07 242.41 393.94 246.52 C 393.82 250.63 389.21 251.37 386.10 251.25 C 382.99 251.12 382.99 250.38 386.23 241.54 C 389.46 232.71 393.57 207.82 394.32 193.14 C 395.06 178.46 391.83 164.27 403.28 164.27" fill="#ffddd4" fill-rule="evenodd" group-id="3" id="Fill-1629" node-id="91" stroke="none" target-height="87.10123" target-width="26.628601" target-x="382.99277" target-y="164.27208"></path><path d="M 373.19 169.41 C 375.83 164.98 405.40 164.89 414.31 168.85 L 413.75 156.26 L 375.83 156.96 L 373.19 169.41 Z" fill="#035e80" fill-rule="evenodd" group-id="3" id="Fill-1631" node-id="92" stroke="none" target-height="13.15564" target-width="41.117126" target-x="373.1942" target-y="156.25629"></path><path d="M 416.15 157.25 L 375.13 157.25 C 373.69 157.25 372.53 156.09 372.53 154.66 L 372.53 128.91 C 372.53 127.47 373.69 126.31 375.13 126.31 L 416.15 126.31 C 417.58 126.31 418.74 127.47 418.74 128.91 L 418.74 154.66 C 418.74 156.09 417.58 157.25 416.15 157.25" fill="#fcfbeb" fill-rule="evenodd" group-id="3" id="Fill-1632" node-id="93" stroke="none" target-height="30.932228" target-width="46.210175" target-x="372.53366" target-y="126.31402"></path><path d="M 418.74 157.81 L 372.53 157.81 L 372.53 129.47 C 372.53 128.04 373.69 126.88 375.12 126.88 L 416.15 126.88 C 417.58 126.88 418.74 128.04 418.74 129.47 L 418.74 157.81 Z" fill="#e6e5ce" fill-rule="evenodd" group-id="3" id="Fill-1633" node-id="94" stroke="none" target-height="30.932228" target-width="46.210205" target-x="372.5337" target-y="126.87995"></path><path d="M 418.74 157.81 L 372.53 157.81 L 372.53 158.71 C 372.53 159.02 372.79 159.27 373.10 159.27 L 418.18 159.27 C 418.49 159.27 418.74 159.02 418.74 158.71 L 418.74 157.81 Z" fill="#184657" fill-rule="evenodd" group-id="3" id="Fill-1634" node-id="95" stroke="none" target-height="1.4610748" target-width="46.210205" target-x="372.5337" target-y="157.81218"></path><path d="M 399.51 142.25 C 399.51 144.49 397.69 146.31 395.45 146.31 C 393.21 146.31 391.40 144.49 391.40 142.25 C 391.40 140.01 393.21 138.20 395.45 138.20 C 397.69 138.20 399.51 140.01 399.51 142.25" fill="#faf8dc" fill-rule="evenodd" group-id="3" id="Fill-1635" node-id="96" stroke="none" target-height="8.110245" target-width="8.11026" target-x="391.3951" target-y="138.19644"></path><g node-id="366"><g node-id="375"><path d="M 451.92 174.15 C 453.66 167.35 453.64 168.36 452.93 167.98 L 452.93 167.98 C 451.18 174.77 451.21 173.77 451.92 174.15" fill="url(#linearGradient-11)" fill-rule="evenodd" group-id="3,26,35" id="Fill-1721" node-id="101" stroke="none" target-height="7.416626" target-width="2.4812012" target-x="451.1833" target-y="167.35472"></path></g></g><g node-id="367"><g node-id="377"><path d="M 453.97 174.01 C 455.53 167.45 455.48 168.45 454.81 168.12 L 454.81 168.12 C 453.25 174.68 453.30 173.68 453.97 174.01" fill="url(#linearGradient-14)" fill-rule="evenodd" group-id="3,27,37" id="Fill-1723" node-id="106" stroke="none" target-height="7.229126" target-width="2.2832947" target-x="453.248" target-y="167.44847"></path></g></g><g node-id="368"><path d="M 457.09 160.31 L 457.09 152.46 C 457.09 148.21 454.80 145.84 451.98 145.84 C 449.15 145.84 446.86 148.21 446.86 152.46 L 446.86 160.31 C 446.86 165.67 449.75 168.45 453.31 168.45 L 455.96 168.45 C 459.52 168.45 462.41 165.67 462.41 160.31 L 457.09 160.31 Z" fill="#ffeee3" fill-rule="evenodd" group-id="3,28" id="Fill-1725" node-id="108" stroke="none" target-height="22.609558" target-width="15.547638" target-x="446.86157" target-y="145.8399"></path><path d="M 444.40 151.69 L 447.63 153.52 L 447.63 149.85 Z" fill="#f69548" fill-rule="evenodd" group-id="3,28" id="Fill-1727" node-id="109" stroke="none" target-height="3.6680756" target-width="3.2291565" target-x="444.4032" target-y="149.8535"></path><path d="M 450.79 150.82 C 450.79 151.31 450.54 151.71 450.24 151.71 C 449.94 151.71 449.69 151.31 449.69 150.82 C 449.69 150.32 449.94 149.92 450.24 149.92 C 450.54 149.92 450.79 150.32 450.79 150.82" fill="#000000" fill-rule="evenodd" group-id="3,28" id="Fill-1729" node-id="110" stroke="none" target-height="1.7888184" target-width="1.0931396" target-x="449.69196" target-y="149.92369"></path><path d="M 461.23 154.31 C 461.23 154.31 463.13 159.53 458.90 162.60 C 456.09 164.64 452.84 164.92 451.72 163.32 C 450.60 161.72 452.00 158.81 454.85 156.82 C 457.70 154.82 461.23 154.31 461.23 154.31" fill="#f2d79d" fill-rule="evenodd" group-id="3,28" id="Fill-1731" node-id="111" stroke="none" target-height="10.603058" target-width="12.532928" target-x="450.6008" target-y="154.31352"></path></g></g><path d="M 499.74 313.73 C 498.92 313.73 498.25 313.06 498.25 312.24 L 498.25 294.61 C 498.25 293.79 498.92 293.12 499.74 293.12 C 500.57 293.12 501.23 293.79 501.23 294.61 L 501.23 312.24 C 501.23 313.06 500.57 313.73 499.74 313.73" fill="#035e80" fill-rule="evenodd" id="Fill-1636" node-id="112" stroke="none" target-height="20.612915" target-width="2.987732" target-x="498.2472" target-y="293.11804"></path><path d="M 114.14 303.42 C 114.14 304.67 113.12 305.69 111.87 305.69 C 110.62 305.69 109.61 304.67 109.61 303.42 C 109.61 302.17 110.62 301.16 111.87 301.16 C 113.12 301.16 114.14 302.17 114.14 303.42" fill="#000000" fill-rule="evenodd" id="Fill-1638" node-id="113" stroke="none" target-height="4.526825" target-width="4.5268097" target-x="109.60939" target-y="301.161"></path><path d="M 392.05 408.41 C 391.41 411.87 388.52 426.16 388.47 429.13 C 388.43 431.65 381.61 430.46 376.97 430.50 C 371.03 430.55 368.24 431.43 368.53 429.32 C 368.72 427.95 375.13 428.19 379.68 421.78 L 382.12 409.29 L 392.05 408.41 Z" fill="#f29d7e" fill-rule="evenodd" id="Fill-1650" node-id="114" stroke="none" target-height="23.237244" target-width="23.809723" target-x="368.2365" target-y="408.41486"></path><path d="M 386.48 428.03 C 385.22 428.33 379.51 427.45 379.51 427.45 C 379.51 427.45 379.04 426.08 377.89 424.39 C 374.25 426.42 367.72 428.22 367.62 429.87 C 367.56 430.96 370.68 430.87 378.16 430.67 C 382.80 430.54 387.48 431.48 388.30 429.60 C 388.45 429.25 388.62 428.57 388.81 427.66 C 387.96 427.76 387.04 427.90 386.48 428.03" fill="#faf8dc" fill-rule="evenodd" id="Fill-1651" node-id="115" stroke="none" target-height="7.0901184" target-width="21.24762" target-x="367.55743" target-y="424.38837"></path><path d="M 388.52 428.82 C 387.70 430.71 383.02 429.77 378.38 429.89 C 371.45 430.08 368.26 430.18 367.88 429.32 C 367.73 429.51 367.63 429.69 367.62 429.87 C 367.56 430.96 370.68 430.87 378.16 430.67 C 382.80 430.54 387.48 431.48 388.30 429.60 C 388.39 429.39 388.48 429.06 388.59 428.64 C 388.56 428.71 388.54 428.77 388.52 428.82" fill="#41b093" fill-rule="evenodd" id="Fill-1652" node-id="116" stroke="none" target-height="2.839203" target-width="21.03064" target-x="367.5575" target-y="428.63916"></path><path d="M 388.60 427.68 C 389.16 423.01 391.48 411.47 392.05 408.41 L 382.12 409.29 L 379.68 421.79 C 378.72 423.15 377.66 424.20 376.61 425.04 C 373.36 426.59 368.98 428.00 367.88 429.32 C 367.84 429.37 367.81 429.41 367.78 429.46 C 367.78 429.46 367.77 429.47 367.77 429.47 C 367.75 429.51 367.72 429.55 367.70 429.59 C 367.69 429.61 367.69 429.62 367.68 429.64 C 367.67 429.67 367.66 429.70 367.65 429.73 C 367.63 429.78 367.62 429.83 367.62 429.87 C 367.56 430.96 370.68 430.87 378.16 430.67 C 382.24 430.56 386.35 431.27 387.84 430.16 C 388.24 429.92 388.47 429.59 388.47 429.13 C 388.47 429.11 388.47 429.09 388.47 429.07 C 388.48 429.04 388.56 428.74 388.59 428.64 C 388.66 428.35 388.73 428.03 388.81 427.66 C 388.74 427.67 388.67 427.68 388.60 427.68" fill="#faf8dc" fill-rule="evenodd" id="Fill-1653" node-id="117" stroke="none" target-height="22.85141" target-width="24.488861" target-x="367.55725" target-y="408.41495"></path><path d="M 458.75 356.59 C 453.67 363.06 442.76 383.33 442.76 383.33 C 442.76 383.33 427.63 356.17 424.23 349.94 C 420.84 343.72 419.80 344.05 419.80 344.05 C 419.80 344.05 416.07 346.64 418.38 351.59 C 419.20 353.35 419.70 355.46 420.93 359.51 C 422.16 363.57 429.28 394.69 441.91 396.48 C 454.55 398.27 470.57 372.71 473.65 368.10 C 480.06 358.48 467.14 345.89 458.75 356.59" fill="#f29d7e" fill-rule="evenodd" id="Fill-1654" node-id="118" stroke="none" target-height="54.55603" target-width="63.986786" target-x="416.07257" target-y="343.71835"></path><path d="M 458.75 356.59 C 453.67 363.06 442.76 383.33 442.76 383.33 C 442.76 383.33 427.63 356.17 424.23 349.94 C 420.84 343.72 419.80 344.05 419.80 344.05 C 419.80 344.05 416.07 346.64 418.38 351.59 C 419.20 353.35 419.70 355.46 420.93 359.51 C 422.16 363.57 429.28 394.69 441.91 396.48 C 454.55 398.27 470.57 372.71 473.65 368.10 C 480.06 358.48 467.14 345.89 458.75 356.59" fill="#f8b5a3" fill-rule="evenodd" id="Fill-1655" node-id="119" stroke="none" target-height="54.55603" target-width="63.986786" target-x="416.07257" target-y="343.71835"></path><path d="M 468.22 345.77 C 463.41 350.58 454.82 348.99 453.09 347.89 C 449.98 345.91 449.69 344.92 448.63 341.74 C 454.57 337.00 455.16 337.61 455.18 334.73 C 455.20 331.55 450.64 315.74 450.64 315.74 L 463.80 312.81 C 463.80 312.81 468.04 328.48 469.07 331.02 C 469.69 332.55 473.25 335.02 474.80 336.79 C 473.52 340.66 471.10 342.89 468.22 345.77" fill="#ffd1c4" fill-rule="evenodd" id="Fill-1656" node-id="120" stroke="none" target-height="37.765594" target-width="26.1698" target-x="448.63168" target-y="312.8135"></path><path d="M 455.03 325.96 C 454.48 326.10 453.94 326.18 453.43 326.22 C 452.04 320.79 450.64 315.74 450.64 315.74 L 460.05 313.60 C 461.07 319.60 459.47 324.93 455.03 325.96" fill="#f4b6a5" fill-rule="evenodd" id="Fill-1659" node-id="121" stroke="none" target-height="12.615509" target-width="10.435059" target-x="450.63913" target-y="313.60495"></path><path d="M 448.63 326.22 C 450.19 327.06 453.40 325.21 455.49 324.19 C 460.32 321.86 462.60 316.43 461.12 310.08 C 459.64 303.73 456.84 298.95 449.98 300.55 C 442.43 302.31 442.73 307.67 444.21 314.02 C 445.16 318.10 445.85 324.71 448.63 326.22 Z" fill="#ffd6cb" fill-rule="evenodd" id="Fill-1660" node-id="122" stroke="none" target-height="28.111115" target-width="20.170258" target-x="442.42935" target-y="298.9504"></path><path d="M 463.41 299.06 C 465.58 301.89 468.84 304.72 464.03 313.63 L 459.36 313.16 L 460.30 303.03 L 463.41 299.06 Z" fill="#333333" fill-rule="evenodd" id="Fill-1661" node-id="123" stroke="none" target-height="14.570221" target-width="9.4776" target-x="459.35928" target-y="299.06427"></path><path d="M 446.70 311.43 C 446.78 311.78 447.13 312.00 447.48 311.91 C 447.83 311.83 448.05 311.48 447.97 311.13 C 447.89 310.78 447.54 310.56 447.19 310.64 C 446.84 310.72 446.62 311.07 446.70 311.43" fill="#000000" fill-rule="evenodd" id="Fill-1662" node-id="124" stroke="none" target-height="1.435791" target-width="1.435791" target-x="446.61728" target-y="310.5592"></path><path d="M 458.13 315.29 C 460.62 314.71 462.17 312.22 461.59 309.74 C 461.01 307.25 458.52 305.70 456.03 306.28 L 458.13 315.29 Z" fill="#ffccbe" fill-rule="evenodd" id="Fill-1663" node-id="125" stroke="none" target-height="9.594147" target-width="6.138916" target-x="456.0312" target-y="305.7002"></path><path d="M 457.64 313.16 C 458.95 312.86 459.76 311.55 459.46 310.23 C 459.15 308.92 457.84 308.11 456.53 308.41 L 457.64 313.16 Z" fill="#f4b6a5" fill-rule="evenodd" id="Fill-1664" node-id="126" stroke="none" target-height="5.0561523" target-width="3.2350464" target-x="456.52847" target-y="308.1064"></path><path d="M 444.47 311.48 L 442.56 315.78 C 442.34 316.29 442.72 316.86 443.28 316.84 L 445.82 316.73 L 444.47 311.48 Z" fill="#f4b6a5" fill-rule="evenodd" id="Fill-1666" node-id="127" stroke="none" target-height="5.383484" target-width="3.480133" target-x="442.33765" target-y="311.47928"></path><path d="M 456.22 307.40 L 457.11 310.93 L 455.88 311.29 C 455.76 310.40 455.02 308.31 454.77 307.63 L 456.22 307.40 Z" fill="#333333" fill-rule="evenodd" id="Fill-1667" node-id="128" stroke="none" target-height="3.8883362" target-width="2.3405151" target-x="454.7691" target-y="307.3999"></path><path d="M 437.94 292.71 C 441.59 290.15 443.07 292.69 447.34 293.12 C 450.79 293.47 455.60 292.72 457.11 293.12 C 460.94 294.12 461.33 296.69 462.94 298.49 C 464.71 300.47 464.85 302.62 464.83 304.25 C 464.75 309.50 457.36 308.76 455.45 308.40 C 452.90 307.92 451.24 305.40 449.60 302.13 C 449.60 302.13 447.39 301.74 443.85 304.96 C 443.00 304.52 440.10 303.51 438.35 301.19 C 436.31 298.48 435.60 294.34 437.94 292.71 Z" fill="#333333" fill-rule="evenodd" id="Fill-1668" node-id="129" stroke="none" target-height="19.343323" target-width="29.249329" target-x="435.6043" target-y="290.15475"></path><path d="M 449.20 308.72 C 448.86 308.86 448.52 308.97 448.18 309.07 L 447.19 309.37 C 446.86 309.47 446.53 309.57 446.21 309.68 C 446.05 309.74 445.89 309.79 445.73 309.86 L 445.22 310.05 C 445.21 310.05 445.20 310.06 445.18 310.06 C 445.17 310.06 445.19 310.07 445.11 310.07 C 445.05 310.07 444.99 310.03 444.96 309.99 C 444.90 309.91 444.91 309.78 445.00 309.72 C 445.08 309.65 445.21 309.67 445.27 309.76 C 445.25 309.72 445.19 309.68 445.13 309.68 C 445.05 309.68 445.07 309.69 445.07 309.69 C 445.06 309.69 445.05 309.69 445.04 309.69 C 445.03 309.70 445.04 309.69 445.04 309.69 C 445.04 309.68 445.05 309.67 445.05 309.67 L 445.10 309.62 L 445.20 309.51 C 445.27 309.44 445.34 309.38 445.42 309.32 C 445.57 309.20 445.73 309.09 445.89 309.00 C 446.23 308.81 446.58 308.66 446.94 308.55 C 447.66 308.35 448.41 308.25 449.15 308.34 C 449.26 308.35 449.34 308.45 449.33 308.56 C 449.32 308.63 449.27 308.70 449.20 308.72" fill="#333333" fill-rule="evenodd" id="Fill-1669" node-id="130" stroke="none" target-height="1.8253174" target-width="4.446289" target-x="444.89532" target-y="308.2462"></path><g node-id="344"><path d="M 328.92 175.98 L 122.46 175.98 C 109.50 175.98 99.00 186.48 99.00 199.43 L 99.00 414.72 C 99.00 427.68 109.50 438.18 122.46 438.18 L 145.59 438.18 L 328.92 175.98 Z" fill="#ffffff" fill-opacity="0.2" fill-rule="evenodd" group-id="4" id="Fill-1637" node-id="131" stroke="none" target-height="262.20306" target-width="229.91885" target-x="99" target-y="175.97604"></path></g><path d="M 437.07 395.28 C 431.29 386.75 416.83 362.57 400.41 364.24 C 383.05 366.01 378.23 421.97 378.23 421.97 L 391.33 422.53 L 403.31 383.38 L 430.64 421.32 L 449.46 414.09 L 437.07 395.28 Z" fill="#e85f5b" fill-rule="evenodd" id="Fill-1672" node-id="132" stroke="none" target-height="59.957794" target-width="71.23041" target-x="378.22516" target-y="362.57144"></path><path d="M 437.07 395.28 C 431.29 386.75 416.83 362.57 400.41 364.24 C 383.05 366.01 378.23 421.97 378.23 421.97 L 391.33 422.53 L 403.31 383.38 L 430.64 421.32 L 449.46 414.09 L 437.07 395.28 Z" fill="#1d576c" fill-rule="evenodd" id="Fill-1673" node-id="133" stroke="none" target-height="59.957794" target-width="71.23041" target-x="378.22516" target-y="362.57144"></path><path d="M 402.30 372.72 C 392.97 373.00 387.13 410.82 386.89 412.43 L 387.45 412.51 C 387.46 412.41 388.96 402.61 391.56 392.91 C 394.97 380.18 398.69 373.39 402.31 373.28 C 402.35 373.28 402.39 373.28 402.43 373.28 C 411.39 373.28 429.32 404.09 429.50 404.40 L 429.99 404.12 C 429.24 402.83 411.55 372.43 402.30 372.72" fill="#000000" fill-rule="evenodd" id="Fill-1674" node-id="134" stroke="none" target-height="40.081635" target-width="43.10382" target-x="386.88806" target-y="372.42844"></path><path d="M 329.30 427.90 C 325.83 428.47 310.41 430.91 308.06 430.60 C 306.03 430.33 305.65 425.57 304.26 421.14 C 302.02 414.01 301.07 411.02 302.14 410.79 C 304.22 410.33 309.43 420.00 312.54 420.79 L 325.12 418.86 L 329.30 427.90 Z" fill="#ffd1c4" fill-rule="evenodd" id="Fill-1675" node-id="135" stroke="none" target-height="20.580536" target-width="28.223663" target-x="301.07495" target-y="410.33066"></path><path d="M 472.61 397.85 C 468.43 407.17 462.96 429.36 442.86 430.49 C 422.76 431.61 400.41 425.99 384.34 426.31 C 368.26 426.63 324.20 430.81 324.20 430.81 C 324.20 430.81 323.07 426.95 322.75 422.61 C 322.43 418.27 322.76 416.19 322.76 416.19 C 322.76 416.19 363.27 408.62 384.98 407.33 C 406.69 406.05 441.09 409.10 441.09 409.10 L 428.87 405.57 L 438.84 386.75 L 472.61 397.85 Z" fill="#1d576c" fill-rule="evenodd" id="Fill-1676" node-id="136" stroke="none" target-height="44.860687" target-width="150.17868" target-x="322.43045" target-y="386.75336"></path><path d="M 451.72 411.87 C 451.12 411.56 449.55 410.61 447.94 408.41 C 445.92 405.64 446.92 399.84 446.93 399.79 L 446.37 399.69 C 446.33 399.93 445.32 405.78 447.48 408.74 C 449.09 410.94 450.64 411.94 451.36 412.32 C 449.08 415.19 446.17 417.88 442.61 419.33 C 435.79 422.10 424.11 420.70 410.58 419.08 C 404.01 418.29 397.22 417.47 390.30 417.04 C 373.93 416.03 354.54 418.45 337.42 420.58 C 332.22 421.23 327.30 421.84 322.73 422.33 C 322.74 422.42 322.75 422.52 322.75 422.61 L 322.78 422.89 C 327.36 422.41 332.28 421.79 337.49 421.14 C 354.58 419.01 373.95 416.60 390.26 417.61 C 397.17 418.03 403.95 418.85 410.51 419.64 C 424.12 421.27 435.87 422.68 442.82 419.85 C 453.01 415.70 458.02 401.72 458.07 401.57 L 457.54 401.39 C 457.51 401.47 455.58 406.85 451.72 411.87" fill="#000000" fill-rule="evenodd" id="Fill-1677" node-id="137" stroke="none" target-height="23.204865" target-width="135.33713" target-x="322.73306" target-y="399.6864"></path><path d="M 448.63 341.74 C 448.63 341.74 452.05 348.10 459.50 347.73 C 466.95 347.35 474.80 336.79 474.80 336.79 C 474.80 336.79 494.39 345.65 488.26 369.89 C 484.37 385.28 477.04 407.33 477.04 407.33 C 477.04 407.33 454.60 408.84 434.42 395.07 L 436.30 356.78 C 436.30 356.78 438.52 349.14 448.63 341.74" fill="#d4ecf1" fill-rule="evenodd" id="Fill-1678" node-id="138" stroke="none" target-height="72.0502" target-width="59.978546" target-x="434.41547" target-y="336.78656"></path><path d="M 418.34 339.40 L 424.35 339.54 C 425.08 339.56 425.74 340.00 426.03 340.67 L 431.13 352.33 C 431.34 352.82 430.97 353.35 430.44 353.33 L 423.99 353.01 C 423.39 352.98 422.86 352.61 422.63 352.05 L 417.75 340.25 C 417.58 339.84 417.89 339.39 418.34 339.40" fill="#184657" fill-rule="evenodd" id="Fill-1679" node-id="139" stroke="none" target-height="13.962463" target-width="13.753418" target-x="417.58414" target-y="339.39166"></path><path d="M 469.50 357.72 C 464.42 364.19 450.64 385.83 450.64 385.83 C 450.64 385.83 438.38 357.30 434.98 351.07 C 431.59 344.85 427.77 345.56 427.77 345.56 L 429.04 346.97 C 429.04 346.97 426.68 346.45 426.63 347.07 C 426.59 347.68 428.76 348.06 429.32 348.81 C 429.32 348.81 427.15 347.77 426.73 348.29 C 426.30 348.81 428.80 349.66 429.28 350.27 C 429.28 350.27 427.30 349.42 427.06 349.94 C 426.82 350.46 428.19 351.03 429.13 352.72 C 430.08 354.42 430.45 356.59 431.68 360.65 C 432.91 364.70 436.11 396.67 448.75 398.46 C 461.39 400.25 481.32 373.84 484.40 369.23 C 490.81 359.61 477.89 347.02 469.50 357.72" fill="#ffd1c4" fill-rule="evenodd" id="Fill-1680" node-id="140" stroke="none" target-height="55.404816" target-width="64.50574" target-x="426.3048" target-y="344.85007"></path><path d="M 309.07 428.42 C 308.43 427.29 307.72 421.56 307.72 421.56 C 307.72 421.56 308.91 420.74 310.22 419.17 C 307.28 416.22 303.76 410.43 302.14 410.79 C 301.07 411.02 302.02 414.01 304.26 421.14 C 305.65 425.57 306.03 430.33 308.06 430.60 C 308.43 430.65 309.13 430.63 310.06 430.56 C 309.73 429.77 309.35 428.92 309.07 428.42" fill="#faf8dc" fill-rule="evenodd" id="Fill-1682" node-id="141" stroke="none" target-height="20.218811" target-width="9.148193" target-x="301.07474" target-y="410.43222"></path><path d="M 308.86 430.60 C 306.83 430.33 306.45 425.57 305.06 421.14 C 302.99 414.53 302.02 411.48 302.74 410.89 C 302.52 410.79 302.32 410.75 302.14 410.79 C 301.07 411.02 302.02 414.01 304.26 421.14 C 305.65 425.57 306.03 430.33 308.06 430.60 C 308.28 430.63 308.62 430.64 309.06 430.62 C 308.99 430.61 308.92 430.61 308.86 430.60" fill="#41b093" fill-rule="evenodd" id="Fill-1683" node-id="142" stroke="none" target-height="19.885681" target-width="7.9841614" target-x="301.07468" target-y="410.7498"></path><path d="M 229.56 467.73 L 50.06 467.73 C 49.35 467.73 48.78 466.98 48.78 466.06 C 48.78 465.13 49.35 464.38 50.06 464.38 L 229.56 464.38 C 230.26 464.38 230.83 465.13 230.83 466.06 C 230.83 466.98 230.26 467.73 229.56 467.73" fill="#9fd4e0" fill-rule="evenodd" id="Fill-1684" node-id="143" stroke="none" target-height="3.348236" target-width="182.04886" target-x="48.78348" target-y="464.38425"></path><path d="M 113.50 389.84 C 116.90 398.19 118.24 410.03 118.66 418.52 L 100.27 420.36 L 113.50 389.84 Z" fill="#faf8dc" fill-rule="evenodd" id="Fill-1685" node-id="144" stroke="none" target-height="30.519867" target-width="18.38974" target-x="100.27438" target-y="389.84116"></path><path d="M 165.53 416.56 C 165.53 416.56 164.07 412.97 157.00 413.47 C 150.85 413.90 126.92 417.78 120.75 418.79 C 118.34 422.54 115.88 426.26 113.24 429.86 C 124.21 433.97 147.11 422.43 150.72 421.41 C 154.79 420.25 156.82 419.40 158.76 419.28 C 160.70 419.16 161.91 420.00 162.22 419.53 C 162.53 419.05 160.75 417.84 160.75 417.84 C 161.52 417.90 163.58 419.55 163.79 418.91 C 164.00 418.28 161.96 417.01 161.96 417.01 C 162.90 417.08 164.38 418.70 164.87 418.33 C 165.37 417.96 163.66 416.26 163.66 416.26 L 165.53 416.56 Z" fill="#f29d7e" fill-rule="evenodd" id="Fill-1686" node-id="145" stroke="none" target-height="21.003723" target-width="52.293083" target-x="113.24113" target-y="412.96674"></path><path d="M 165.53 416.56 C 165.53 416.56 164.07 412.97 157.00 413.47 C 150.85 413.90 126.92 417.78 120.75 418.79 C 118.34 422.54 115.88 426.26 113.24 429.86 C 124.21 433.97 147.11 422.43 150.72 421.41 C 154.79 420.25 156.82 419.40 158.76 419.28 C 160.70 419.16 161.91 420.00 162.22 419.53 C 162.53 419.05 160.75 417.84 160.75 417.84 C 161.52 417.90 163.58 419.55 163.79 418.91 C 164.00 418.28 161.96 417.01 161.96 417.01 C 162.90 417.08 164.38 418.70 164.87 418.33 C 165.37 417.96 163.66 416.26 163.66 416.26 L 165.53 416.56 Z" fill="#ffb9a6" fill-rule="evenodd" id="Fill-1687" node-id="146" stroke="none" target-height="21.003723" target-width="52.293083" target-x="113.24113" target-y="412.96674"></path><path d="M 94.79 388.56 C 96.60 395.12 104.85 397.99 106.90 397.89 C 110.59 397.70 108.93 398.88 111.43 396.64 C 110.95 389.59 110.18 387.93 111.59 385.41 C 113.14 382.63 124.92 371.14 124.92 371.14 L 114.92 362.10 C 114.92 362.10 103.50 373.62 101.35 375.32 C 100.05 376.34 95.74 376.73 93.51 377.50 C 92.72 381.50 93.71 384.64 94.79 388.56" fill="#ffd0c3" fill-rule="evenodd" id="Fill-1688" node-id="147" stroke="none" target-height="36.788605" target-width="32.204964" target-x="92.71683" target-y="362.0954"></path><path d="M 115.39 378.54 C 115.82 378.92 116.25 379.24 116.69 379.51 C 120.44 375.34 124.02 371.51 124.02 371.51 L 116.66 365.27 C 112.98 370.11 111.94 375.57 115.39 378.54" fill="#f4b6a5" fill-rule="evenodd" id="Fill-1691" node-id="148" stroke="none" target-height="14.245422" target-width="12.081169" target-x="111.93564" target-y="365.2678"></path><path d="M 117.93 351.01 C 114.95 352.98 110.78 354.51 112.41 364.51 L 117.15 365.66 L 119.57 355.77 L 117.93 351.01 Z" fill="#444444" fill-rule="evenodd" id="Fill-1692" node-id="149" stroke="none" target-height="14.649902" target-width="8.796417" target-x="110.777054" target-y="351.01144"></path><path d="M 131.19 371.42 C 129.10 374.74 126.12 378.69 123.23 379.41 C 121.31 379.89 119.75 378.88 116.87 375.94 C 114.08 373.09 113.02 367.69 116.50 362.17 C 119.97 356.65 124.18 353.05 130.14 356.80 C 136.70 360.93 134.66 365.90 131.19 371.42" fill="#ffd6cb" fill-rule="evenodd" id="Fill-1693" node-id="150" stroke="none" target-height="26.839722" target-width="23.674889" target-x="113.02416" target-y="353.05075"></path><path d="M 129.69 368.15 C 129.50 368.46 129.09 368.55 128.79 368.36 C 128.48 368.17 128.39 367.76 128.58 367.46 C 128.77 367.15 129.18 367.06 129.48 367.25 C 129.79 367.44 129.88 367.85 129.69 368.15" fill="#000000" fill-rule="evenodd" id="Fill-1694" node-id="151" stroke="none" target-height="1.4897156" target-width="1.4897156" target-x="128.39005" target-y="367.06055"></path><path d="M 117.62 368.08 C 115.45 366.71 114.80 363.86 116.17 361.69 C 117.53 359.53 120.38 358.88 122.55 360.24 L 117.62 368.08 Z" fill="#ffcdbf" fill-rule="evenodd" id="Fill-1695" node-id="152" stroke="none" target-height="9.194183" target-width="7.7435226" target-x="114.80394" target-y="358.88187"></path><path d="M 118.78 366.22 C 117.64 365.51 117.30 364.00 118.02 362.86 C 118.74 361.72 120.24 361.38 121.38 362.10 L 118.78 366.22 Z" fill="#f4b6a5" fill-rule="evenodd" id="Fill-1696" node-id="153" stroke="none" target-height="4.845337" target-width="4.0808563" target-x="117.30028" target-y="361.3783"></path><path d="M 131.77 368.93 L 132.17 373.62 C 132.22 374.18 131.67 374.59 131.15 374.39 L 128.79 373.46 L 131.77 368.93 Z" fill="#f4b6a5" fill-rule="evenodd" id="Fill-1698" node-id="154" stroke="none" target-height="5.658905" target-width="3.4337006" target-x="128.78671" target-y="368.9313"></path><path d="M 122.00 361.24 L 120.01 364.28 L 121.06 365.03 C 121.46 364.22 122.84 362.49 123.30 361.93 L 122.00 361.24 Z" fill="#444444" fill-rule="evenodd" id="Fill-1699" node-id="155" stroke="none" target-height="3.7871094" target-width="3.289322" target-x="120.01038" target-y="361.2388"></path><path d="M 125.78 350.12 C 119.59 347.14 115.42 352.50 114.52 355.22 C 112.88 360.21 120.49 362.15 122.41 362.44 C 124.97 362.82 127.37 360.98 129.98 358.42 C 129.98 358.42 132.20 358.77 134.50 362.97 C 136.55 362.68 139.35 359.93 136.83 355.22 C 135.17 352.10 131.20 352.73 125.78 350.12 Z" fill="#444444" fill-rule="evenodd" id="Fill-1700" node-id="156" stroke="none" target-height="15.830597" target-width="26.467583" target-x="112.88154" target-y="347.14233"></path><path d="M 128.44 364.34 C 129.19 364.41 129.90 364.67 130.56 365.02 C 130.88 365.21 131.20 365.43 131.48 365.68 C 131.62 365.81 131.76 365.95 131.88 366.10 C 131.94 366.17 132.00 366.25 132.05 366.33 L 132.13 366.45 L 132.16 366.52 C 132.16 366.52 132.17 366.54 132.17 366.54 C 132.17 366.54 132.17 366.55 132.16 366.54 C 132.16 366.54 132.15 366.53 132.14 366.53 C 132.13 366.53 132.15 366.53 132.08 366.51 C 132.03 366.50 131.95 366.53 131.93 366.56 C 132.01 366.49 132.13 366.50 132.20 366.58 C 132.27 366.66 132.26 366.78 132.18 366.85 C 132.15 366.88 132.07 366.91 132.01 366.90 C 131.94 366.88 131.96 366.88 131.95 366.87 C 131.93 366.87 131.92 366.86 131.91 366.85 L 131.85 366.81 L 131.46 366.56 C 131.32 366.46 131.17 366.37 131.03 366.28 C 130.74 366.11 130.44 365.94 130.14 365.77 L 129.23 365.26 C 128.92 365.09 128.61 364.91 128.31 364.70 C 128.22 364.64 128.19 364.51 128.25 364.42 C 128.30 364.36 128.37 364.33 128.44 364.34" fill="#444444" fill-rule="evenodd" id="Fill-1701" node-id="157" stroke="none" target-height="2.5807495" target-width="4.080017" target-x="128.19138" target-y="364.32974"></path><path d="M 127.58 375.51 C 127.71 375.64 127.85 375.76 127.98 375.87 C 127.86 376.04 127.71 376.22 127.55 376.41 C 127.34 376.26 127.13 376.08 126.92 375.89 C 126.17 375.16 125.81 374.43 126.12 374.24 C 126.44 374.06 126.82 374.79 127.58 375.51" fill="#ed6d53" fill-rule="evenodd" id="Fill-1702" node-id="158" stroke="none" target-height="2.3521729" target-width="2.1675797" target-x="125.81218" target-y="374.05515"></path><g node-id="345"><path d="M 446.13 320.49 C 445.96 320.56 445.78 320.61 445.62 320.66 C 445.67 320.86 445.73 321.09 445.80 321.32 C 446.05 321.27 446.32 321.19 446.58 321.09 C 447.56 320.72 448.18 320.18 447.96 319.89 C 447.75 319.60 447.11 320.12 446.13 320.49" fill="#ed6d53" fill-rule="evenodd" group-id="5" id="Fill-1702" node-id="159" stroke="none" target-height="1.7291565" target-width="2.5601807" target-x="445.61853" target-y="319.59537"></path></g><path d="M 145.12 442.36 C 145.76 445.82 148.64 460.11 148.69 463.08 C 148.73 465.60 155.55 464.41 160.20 464.45 C 166.14 464.49 171.90 465.38 171.61 463.27 C 171.42 461.90 162.04 462.14 157.48 455.73 L 155.04 443.24 L 145.12 442.36 Z" fill="#f29d7e" fill-rule="evenodd" id="Fill-1703" node-id="160" stroke="none" target-height="23.237244" target-width="26.780014" target-x="145.11882" target-y="442.3634"></path><path d="M 145.12 442.36 C 145.76 445.82 148.64 460.11 148.69 463.08 C 148.73 465.60 155.55 464.41 160.20 464.45 C 166.14 464.49 171.90 465.38 171.61 463.27 C 171.42 461.90 162.04 462.14 157.48 455.73 L 155.04 443.24 L 145.12 442.36 Z" fill="#ffc9ba" fill-rule="evenodd" id="Fill-1704" node-id="161" stroke="none" target-height="23.237244" target-width="26.780014" target-x="145.11882" target-y="442.3634"></path><path d="M 100.09 429.22 C 105.88 420.70 120.34 396.53 136.75 398.19 C 151.77 399.71 157.71 443.98 157.71 443.98 L 143.70 448.44 L 133.86 417.33 L 106.52 455.27 L 87.71 448.04 L 100.09 429.22 Z" fill="#184657" fill-rule="evenodd" id="Fill-1705" node-id="162" stroke="none" target-height="58.738586" target-width="69.99751" target-x="87.70946" target-y="396.53348"></path><path d="M 100.09 429.22 C 105.88 420.70 120.34 396.53 136.75 398.19 C 151.77 399.71 157.71 443.98 157.71 443.98 L 143.70 448.44 L 133.86 417.33 L 106.52 455.27 L 87.71 448.04 L 100.09 429.22 Z" fill="#184657" fill-rule="evenodd" id="Fill-1706" node-id="163" stroke="none" target-height="58.738586" target-width="69.99751" target-x="87.70946" target-y="396.53348"></path><path d="M 56.14 428.71 C 52.46 441.58 51.64 461.67 64.48 464.50 C 71.56 466.05 80.75 465.06 104.52 465.20 C 128.00 465.34 143.28 466.48 143.14 453.60 C 143.00 440.73 114.56 443.98 108.48 443.42 C 102.40 442.85 74.25 442.57 74.25 442.57 L 56.14 428.71 Z" fill="#184657" fill-rule="evenodd" id="Fill-1708" node-id="164" stroke="none" target-height="37.769714" target-width="91.641716" target-x="51.6363" target-y="428.7071"></path><path d="M 111.52 385.63 C 111.52 385.63 109.77 388.60 104.16 385.70 C 98.50 382.77 96.17 376.37 96.17 376.37 C 96.17 376.37 78.77 380.05 66.89 401.97 C 59.33 415.93 53.31 435.92 53.31 435.92 C 53.31 435.92 61.42 445.78 94.24 442.81 C 94.24 442.81 104.09 424.04 109.19 414.99 C 114.28 405.93 118.45 398.36 111.52 385.63" fill="#faf8dc" fill-rule="evenodd" id="Fill-1709" node-id="165" stroke="none" target-height="69.40921" target-width="65.141716" target-x="53.31025" target-y="376.36716"></path><path d="M 103.86 393.39 C 110.00 400.31 112.16 412.09 112.16 412.09 L 108.80 416.33 L 103.86 393.39 Z" fill="#e1dfc1" fill-rule="evenodd" id="Fill-1710" node-id="166" stroke="none" target-height="22.939758" target-width="8.299004" target-x="103.85821" target-y="393.38943"></path><path d="M 84.43 399.28 C 81.70 407.25 89.33 433.61 95.94 439.55 L 102.68 427.10 L 84.43 399.28 Z" fill="#e1dfc1" fill-rule="evenodd" id="Fill-1711" node-id="167" stroke="none" target-height="40.26877" target-width="20.982956" target-x="81.69622" target-y="399.2836"></path><path d="M 180.62 401.09 L 180.40 401.03 L 171.93 428.30 L 142.62 428.30 L 142.62 428.58 C 142.62 429.33 143.22 429.93 143.97 429.93 L 171.94 429.93 C 172.74 429.93 173.40 429.37 173.55 428.62 L 181.55 402.86 C 181.78 402.11 181.37 401.32 180.62 401.09" fill="#035e80" fill-rule="evenodd" id="Fill-1712" node-id="168" stroke="none" target-height="28.90738" target-width="39.16237" target-x="142.61812" target-y="401.0256"></path><path d="M 103.25 397.30 C 106.20 403.82 113.79 432.91 113.79 432.91 C 113.79 432.91 142.54 421.18 149.32 419.13 C 156.11 417.08 158.34 420.26 158.34 420.26 L 156.44 420.37 C 156.44 420.37 158.48 421.66 158.08 422.13 C 157.69 422.60 155.88 421.35 154.94 421.49 C 154.94 421.49 157.22 422.27 157.16 422.94 C 157.09 423.60 154.72 422.45 153.95 422.56 C 153.95 422.56 155.96 423.35 155.76 423.88 C 155.57 424.42 154.20 423.86 152.33 424.41 C 150.47 424.95 148.68 426.24 144.96 428.26 C 141.24 430.29 116.53 450.82 106.26 443.23 C 96.00 435.64 83.87 408.34 84.43 399.28 C 85.15 387.75 97.63 384.91 103.25 397.30" fill="#ffd0c3" fill-rule="evenodd" id="Fill-1713" node-id="169" stroke="none" target-height="65.90918" target-width="74.614746" target-x="83.86525" target-y="384.91498"></path><path d="M 74.58 443.15 L 74.86 443.21 C 76.28 436.18 83.85 413.93 86.72 409.12 L 86.48 408.97 C 83.60 413.80 76.01 436.11 74.58 443.15" fill="#e289a9" fill-rule="evenodd" id="Fill-1715" node-id="170" stroke="none" target-height="34.23935" target-width="12.142975" target-x="74.5787" target-y="408.97205"></path><path d="M 111.28 423.56 C 111.23 423.36 111.18 423.17 111.12 422.97 L 108.48 420.08 L 93.11 423.57 L 94.44 427.93 C 94.94 428.81 95.44 429.67 95.94 430.52 C 104.36 428.97 110.14 424.50 111.28 423.56" fill="#f4b6a5" fill-rule="evenodd" id="Fill-1716" node-id="171" stroke="none" target-height="10.443359" target-width="18.176918" target-x="93.1072" target-y="420.07803"></path><path d="M 111.96 422.94 C 109.29 413.20 105.64 400.51 103.75 396.34 C 97.63 382.84 84.04 385.92 83.25 398.50 C 82.88 404.38 87.43 417.32 93.54 428.57 C 98.75 428.00 108.73 424.60 111.96 422.94" fill="#faf8dc" fill-rule="evenodd" id="Fill-1717" node-id="172" stroke="none" target-height="45.733154" target-width="29.079506" target-x="82.88277" target-y="382.8392"></path><path d="M 135.45 464.50 L 137.57 438.95 C 137.85 435.51 140.78 432.81 144.23 432.81 L 190.86 432.81 C 194.30 432.81 197.23 435.50 197.52 438.94 L 199.67 464.50 L 202.51 464.50 L 200.34 438.70 C 199.93 433.81 195.76 429.98 190.86 429.98 L 144.23 429.98 C 139.32 429.98 135.15 433.82 134.75 438.71 L 132.62 464.50 L 135.45 464.50 Z" fill="#fcc14a" fill-rule="evenodd" id="Fill-1718" node-id="173" stroke="none" target-height="34.516113" target-width="69.89877" target-x="132.61539" target-y="429.98026"></path><path d="M 91.77 425.41 L 91.81 425.69 C 99.19 424.66 111.05 420.07 111.17 420.02 L 111.07 419.76 C 110.95 419.80 99.12 424.38 91.77 425.41" fill="#e289a9" fill-rule="evenodd" id="Fill-1719" node-id="174" stroke="none" target-height="5.9302063" target-width="19.403633" target-x="91.76729" target-y="419.75735"></path><path d="M 112.41 387.58 C 112.40 387.60 111.31 389.73 105.29 388.82 C 99.50 387.94 95.35 382.27 93.81 377.03 L 93.54 377.11 C 94.17 379.26 95.23 381.48 96.67 383.42 C 94.27 384.33 92.30 386.26 92.16 386.40 C 91.35 386.46 90.55 386.61 89.77 386.84 C 85.80 388.02 84.18 391.73 83.51 394.63 C 82.63 398.51 83.08 402.45 83.73 404.65 L 84.00 404.57 C 82.46 399.39 83.10 389.12 89.85 387.11 C 92.82 386.23 96.05 386.63 98.93 388.25 C 101.70 389.81 103.34 391.97 103.72 393.43 L 104.00 393.35 C 103.51 391.54 101.53 389.39 99.06 388.00 C 97.01 386.85 94.79 386.30 92.59 386.38 C 93.21 385.82 94.89 384.37 96.84 383.65 C 98.95 386.41 101.82 388.58 105.25 389.10 C 106.34 389.26 107.26 389.33 108.06 389.33 C 111.86 389.33 112.63 387.78 112.66 387.70 L 112.41 387.58 Z" fill="#e289a9" fill-rule="evenodd" id="Fill-1720" node-id="175" stroke="none" target-height="27.617584" target-width="30.198357" target-x="82.46435" target-y="377.0342"></path><g node-id="346"><path d="M 561.05 393.06 C 561.35 392.96 561.20 392.51 560.89 392.61 C 551.83 395.63 550.77 396.49 561.05 393.06" fill="#7aba8e" fill-rule="evenodd" group-id="6" id="Fill-1857" node-id="177" stroke="none" target-height="3.9808655" target-width="10.5789795" target-x="550.7694" target-y="392.50803"></path><path d="M 554.05 397.75 C 561.96 396.48 561.74 396.62 561.69 396.28 C 561.63 395.94 561.93 396.00 553.97 397.28 C 553.66 397.33 553.73 397.80 554.05 397.75" fill="#7aba8e" fill-rule="evenodd" group-id="6" id="Fill-1859" node-id="178" stroke="none" target-height="1.866394" target-width="8.300659" target-x="553.6588" target-y="395.9376"></path><path d="M 531.92 331.97 C 532.15 331.97 532.25 331.68 532.06 331.54 C 524.39 325.66 524.73 325.79 524.52 326.06 C 524.27 326.39 531.87 331.97 531.92 331.97" fill="#7aba8e" fill-rule="evenodd" group-id="6" id="Fill-1865" node-id="179" stroke="none" target-height="6.315216" target-width="7.9733887" target-x="524.2732" target-y="325.65564"></path><path d="M 532.76 330.65 C 532.96 330.65 533.07 330.42 532.95 330.26 C 520.64 314.32 532.19 330.65 532.76 330.65" fill="#7aba8e" fill-rule="evenodd" group-id="6" id="Fill-1867" node-id="180" stroke="none" target-height="16.33374" target-width="12.432556" target-x="520.6393" target-y="314.3168"></path></g></svg>