<svg version="1.1" xmlns="http://www.w3.org/2000/svg" style="display: block;" viewBox="0 0 2000 2000" width="500" height="500" preserveAspectRatio="none">
<path transform="translate(0,0)" fill="rgb(139,82,254)" d="M 1749.66 686.42 C 1755.87 685.58 1762.7 685.869 1768.99 685.634 L 1787.48 1040.69 C 1745.55 1043.63 1698.12 1042.53 1656.98 1048.25 C 1657.31 1015.67 1654.25 979.403 1652.36 946.516 C 1651.54 932.164 1649.14 916.15 1650.86 901.902 C 1642.6 913.702 1631.24 924.187 1621.41 934.771 L 1568.49 991.918 C 1514.57 1050.1 1461.5 1109.4 1406.33 1166.38 C 1403.71 1169.08 1398.32 1175.56 1394.74 1176.21 C 1384.7 1170.73 1375.6 1162.47 1366.48 1155.52 C 1348.31 1141.6 1330.03 1127.84 1311.64 1114.22 C 1301.57 1127.2 1289.82 1139.24 1278.81 1151.43 C 1255.66 1177.05 1232.27 1202.44 1208.64 1227.62 C 1161.84 1277.97 1116.34 1329.59 1069.18 1379.61 C 1052.46 1365.61 1035.84 1351.5 1019.32 1337.26 C 1008.18 1327.75 996.306 1318.47 986.014 1308.05 C 965.886 1329.71 943.934 1349.74 922.671 1370.28 L 846.584 1444.94 L 763.943 1524.82 C 745.367 1542.97 727.383 1562.53 707.592 1579.31 C 694.371 1572.63 676.015 1558.21 663.034 1549.44 C 638.523 1532.9 611.801 1517.07 588.836 1498.56 C 570.869 1518.81 549.628 1536.09 529.946 1554.62 C 482.666 1599.12 434.354 1642.65 387.628 1687.72 C 383.072 1683.45 378.887 1678.62 374.598 1674.08 C 360.45 1659.09 346.825 1643.62 332.707 1628.61 C 321.553 1616.74 309.602 1605.27 299.132 1592.81 C 317.579 1571.7 340.18 1552.75 361.041 1533.98 C 381.983 1515.14 402.57 1495.7 423.22 1476.52 L 535.722 1372.25 C 549.321 1359.89 561.805 1346.08 576.132 1334.55 C 604.246 1351.71 631.389 1371.78 658.599 1390.41 C 669.146 1397.64 681.123 1407.99 692.973 1412.63 C 703.689 1404.49 713.381 1393.61 723.07 1384.18 L 779.226 1329.23 L 906.139 1205.62 C 930.547 1181.82 954.328 1157.05 979.465 1134.04 C 988.47 1139.79 995.972 1147.01 1004.13 1153.81 C 1022.39 1169.1 1040.44 1184.64 1058.28 1200.43 C 1074.62 1177.86 1096.54 1157.47 1115.47 1136.97 L 1240.01 1001.61 C 1258.07 981.76 1277.93 962.979 1294.28 941.698 C 1305.93 946.991 1316.84 956.737 1327.12 964.365 C 1344.85 977.437 1362.47 990.649 1379.99 1004 C 1395.3 986.183 1411.7 969.498 1427.69 952.317 L 1511.42 862.093 C 1519.46 853.407 1539.59 835.704 1544.16 826.434 C 1542.26 825.979 1542.89 825.921 1541.26 826.164 C 1527.26 828.257 1512.48 828.094 1498.32 828.759 L 1424.91 832.461 C 1425.19 814.417 1423.56 796.035 1422.7 777.991 C 1421.5 753.148 1420.74 728.271 1419.04 703.458 C 1491.95 698.821 1565.18 695.659 1638.16 692.222 C 1675.19 690.478 1712.76 689.744 1749.66 686.42 z"/>
<path transform="translate(0,0)" fill="rgb(139,82,254)" d="M 298.851 674.074 C 322.726 674.991 346.699 674.527 370.593 674.537 L 490.446 674.566 L 835.906 674.621 L 1136.95 674.573 C 1193.89 674.592 1251.29 676.093 1308.17 673.704 C 1307.58 703.14 1307.46 733.031 1308.39 762.454 C 1285.95 761.611 1263.34 762.126 1240.88 762.126 L 1122.14 762.136 L 764.228 762.119 L 457.345 762.128 L 360.057 762.122 C 339.38 762.107 318.578 761.582 297.93 762.642 C 298.168 743.627 298.239 724.61 298.143 705.594 C 298.127 695.488 296.91 683.976 298.851 674.074 z"/>
<path transform="translate(0,0)" fill="rgb(139,82,254)" d="M 802.319 312.823 C 817.875 318.116 841.991 333.808 857.084 342.172 L 964.709 401.244 L 1394.14 637.343 C 1384.75 652.046 1374.23 667.305 1366.12 682.693 L 999.326 480.927 L 874.954 412.694 C 851.15 399.564 827.554 385.625 803.321 373.336 C 775.313 387.129 747.989 403.862 720.591 418.91 L 538.058 519.279 L 332.366 632.055 C 300.934 649.423 268.784 665.808 238.031 684.355 C 231.962 668.209 221.693 652.465 212.923 637.595 C 231.298 624.131 254.089 613.94 274.173 602.966 L 387.966 540.412 L 802.319 312.823 z"/>
<path transform="translate(0,0)" fill="rgb(139,82,254)" d="M 802.212 442.173 C 814.244 445.419 827.139 454.517 838.007 460.608 L 886.202 487.173 L 1066.42 586.124 C 1096.81 602.728 1126.81 620.347 1157.8 635.787 C 1117.57 636.989 1077.03 635.913 1036.76 635.901 L 805.5 635.908 L 450.61 636.178 C 465.925 625.233 483.825 616.914 500.307 607.853 L 586.906 560.105 L 725.769 483.689 C 751.133 469.76 776.319 455.076 802.212 442.173 z"/>
<path transform="translate(0,0)" fill="rgb(139,82,254)" d="M 392.643 784.073 C 408.735 785.293 425.126 784.809 441.263 784.8 C 463.743 784.849 486.223 784.713 508.7 784.392 C 511.972 871.838 512.824 959.581 514.787 1047.08 L 516.745 1116.46 C 517.156 1129.36 518.91 1143.26 517.064 1156 C 522.815 1155.92 528.585 1156.06 534.337 1156.11 C 533.771 1175.48 531.968 1196.98 534.25 1216.18 L 510.25 1216.04 C 462.51 1215.89 414.77 1215.99 367.031 1216.34 C 364.937 1196.73 366.87 1175.93 365.894 1156.08 C 371.953 1155.97 378.074 1156.31 384.134 1156.49 C 383.063 1137.58 384.514 1118.24 384.68 1099.27 C 385.149 1045.82 387.162 992.559 388.662 939.145 L 390.58 835.395 C 390.981 818.384 390.841 800.984 392.643 784.073 z"/>
<path transform="translate(0,0)" fill="rgb(139,82,254)" d="M 297.574 1228.15 L 803.246 1227.99 C 780.666 1246.72 759.474 1269.8 738.357 1290.28 C 729.898 1298.83 721.402 1308.32 711.306 1314.9 C 696.67 1315.71 665.544 1317.37 652.371 1314.12 C 628.703 1308.28 612.656 1283.87 588.33 1278.5 C 554.557 1271.04 536.96 1298.81 513.575 1314.05 L 512.313 1314.87 C 460.529 1317.18 407.919 1315.34 356.045 1315.35 C 336.933 1315.35 317.597 1314.76 298.529 1315.94 C 296.086 1287.02 299.183 1257.25 297.574 1228.15 z"/>
<path transform="translate(0,0)" fill="rgb(139,82,254)" d="M 1200.27 784.496 C 1205.5 784.477 1210.74 784.355 1215.97 784.13 C 1215.72 835.368 1220.14 886.788 1219.9 938.026 C 1211.85 953.627 1188.77 974.736 1176.49 988.043 L 1103.6 1067.33 C 1100.22 1071.47 1096.13 1075 1092.24 1078.64 L 1096.64 909.946 C 1097.32 868.538 1096.12 825.877 1099.71 784.631 C 1133.19 785.258 1166.77 784.785 1200.27 784.496 z"/>
<path transform="translate(0,0)" fill="rgb(139,82,254)" d="M 222.666 1326.38 C 242.164 1325.98 261.86 1326.75 281.383 1326.78 C 354.649 1326.89 428.198 1328.22 501.432 1326.48 C 486.18 1341.67 470.091 1356.29 454.076 1370.67 C 443.522 1380.77 419.673 1406.92 407.555 1412.18 C 395.785 1417.29 250.175 1413.15 221.955 1414.89 C 222.004 1404.19 220.516 1331.73 222.666 1326.38 z"/>
<path transform="translate(0,0)" fill="rgb(235,233,235)" d="M 1494.94 1365.08 C 1511.6 1365.57 1534.41 1362.69 1549.75 1369.45 C 1555.32 1371.9 1559.85 1375.95 1561.76 1381.85 C 1565.54 1393.49 1559.06 1404.9 1553.69 1414.8 C 1559.81 1422.21 1568.31 1429.49 1569.46 1439.63 C 1570.37 1447.6 1566.34 1453.84 1561.76 1459.87 C 1560.38 1461.03 1558.95 1462.14 1557.48 1463.19 C 1544.44 1472.53 1515.88 1475.1 1500.56 1472.27 C 1498.57 1471.9 1495.46 1470.84 1494.47 1468.94 C 1490.88 1462.02 1492.02 1372.72 1494.94 1365.08 z M 1510.83 1458.68 C 1521.75 1459.91 1530.37 1460.3 1541.13 1457.5 C 1546.62 1454.12 1551.22 1450.48 1552.72 1443.87 C 1553.64 1439.79 1552.33 1435.47 1549.89 1432.18 C 1544.48 1424.9 1534.28 1421.19 1525.49 1420.31 C 1523.6 1420.12 1521.72 1420.1 1519.82 1420.15 C 1516.87 1420.78 1513.71 1421.06 1511.89 1423.75 C 1506.35 1431.95 1509.91 1449.04 1510.83 1458.68 z M 1510.29 1410.29 C 1521.04 1412.55 1527.06 1413.67 1537.03 1408.2 C 1541.39 1405.42 1546.15 1400.54 1547.36 1395.32 C 1548.02 1392.44 1547.31 1390.02 1545.59 1387.73 C 1541.26 1381.95 1532.44 1378.82 1525.48 1378.29 C 1521.05 1377.96 1516.48 1378.18 1512.03 1378.31 C 1508.22 1382.62 1508.84 1389.58 1509.14 1395.02 C 1509.47 1400.11 1509.85 1405.2 1510.29 1410.29 z"/>
<path transform="translate(0,0)" fill="rgb(235,233,235)" d="M 1238.24 1565.33 C 1250.38 1565.57 1262.51 1564.56 1274.66 1565.06 C 1285.13 1565.48 1297.05 1567.28 1304.27 1575.68 C 1309.93 1582.27 1310.96 1591.5 1309.88 1599.84 C 1308.16 1613.09 1299.19 1620.6 1289.16 1628.06 C 1292.47 1640.49 1309.43 1658.87 1309.53 1668.42 C 1309.55 1670.16 1309.21 1670.06 1308.14 1671.26 C 1304.82 1671.65 1301.23 1672.27 1297.94 1671.37 C 1294.32 1670.39 1292.8 1668.15 1291.05 1665.14 C 1285.67 1655.68 1281.64 1641.32 1273.61 1634.05 C 1267.07 1628.14 1261.79 1629.02 1253.49 1629.24 C 1253.58 1640.18 1255.25 1651.65 1254.16 1662.52 C 1253.69 1667.21 1252.67 1670.59 1248.99 1673.62 C 1246.57 1674.46 1243.58 1674.93 1241.13 1673.74 C 1239.32 1672.86 1238.58 1671.97 1238.05 1670.08 C 1235.1 1659.57 1238.06 1644.54 1237.83 1633.49 L 1236.94 1592.5 C 1236.73 1585.46 1235.87 1578.08 1236.23 1571.06 C 1236.34 1568.78 1237.14 1567.29 1238.24 1565.33 z M 1254.04 1615.62 C 1265.21 1616.89 1274.2 1617.65 1284.93 1613.34 C 1289.88 1610.14 1293.82 1604.49 1294.84 1598.59 C 1295.5 1594.78 1293.94 1590.74 1291.71 1587.7 C 1287.84 1582.41 1281.17 1578.74 1274.72 1577.82 C 1270.05 1577.16 1264.8 1577.67 1260.13 1578.24 C 1257.13 1579.37 1255.13 1579.46 1253.76 1582.68 C 1251.15 1588.82 1254.14 1607.93 1254.04 1615.62 z"/>
<path transform="translate(0,0)" fill="rgb(235,233,235)" d="M 1709.82 1564.38 C 1725.93 1564.26 1749.16 1561.5 1763.03 1570.54 C 1769.12 1574.51 1773.52 1580.3 1774.84 1587.53 C 1779.32 1611.99 1764.34 1613.68 1756.51 1627.3 C 1751.65 1635.75 1774.11 1658.78 1775.45 1669.01 C 1775.68 1670.77 1774.42 1671.33 1773.31 1672.53 C 1771.13 1673.43 1769.59 1673.58 1767.31 1673.05 C 1760.84 1671.55 1757.3 1667.9 1753.92 1662.51 C 1747.72 1653.82 1746.38 1641.02 1739.09 1633.42 C 1732.78 1626.83 1726.08 1627.66 1717.66 1627.72 C 1717.88 1636.65 1720.52 1662.74 1715.92 1668.95 C 1714.38 1671.03 1711.32 1671.27 1708.93 1671.41 C 1706.45 1671.56 1704.73 1670.91 1702.88 1669.28 C 1698.62 1658.81 1702.57 1643.05 1702.92 1631.89 C 1703.13 1622.51 1703.12 1613.13 1702.86 1603.75 C 1702.61 1596.15 1699.14 1571.28 1701.18 1566.4 C 1703.67 1564.28 1706.71 1564.56 1709.82 1564.38 z M 1753.79 1610.4 C 1755.76 1606.61 1757.18 1602.56 1758.72 1598.57 C 1757.84 1594.53 1756.74 1589.77 1754.3 1586.37 C 1749.77 1580.06 1742.42 1578.93 1735.28 1577.95 C 1731.76 1575.12 1726.38 1575.61 1722.11 1576.15 C 1720.08 1576.41 1718.72 1576.71 1717.04 1577.96 L 1716.85 1579.81 L 1717.68 1580.69 C 1717.96 1592.36 1718.11 1604.04 1718.14 1615.71 C 1731.91 1618.36 1741.58 1617.68 1753.79 1610.4 z"/>
<path transform="translate(0,0)" fill="rgb(235,233,235)" fill-opacity="0.964706" d="M 1717.68 1580.69 L 1716.85 1579.81 L 1717.04 1577.96 C 1718.72 1576.71 1720.08 1576.41 1722.11 1576.15 C 1726.38 1575.61 1731.76 1575.12 1735.28 1577.95 C 1730.05 1577.96 1724.01 1577.33 1719.03 1578.99 L 1717.68 1580.69 z"/>
<path transform="translate(0,0)" fill="rgb(235,233,235)" d="M 1357.75 1564.08 C 1363.23 1564.01 1367.53 1564.97 1372.74 1566.48 C 1376.5 1574.3 1378.16 1583.22 1381.17 1591.36 C 1389.46 1613.8 1400.48 1638.06 1404.84 1661.57 C 1405.44 1664.76 1405.82 1667.03 1403.66 1669.71 C 1401.98 1671.79 1398.84 1672.85 1396.32 1673.18 C 1385.8 1670.13 1387.34 1650.27 1381.43 1642.13 C 1377.74 1639.7 1373.5 1639.44 1369.22 1638.78 C 1365.04 1637.56 1356.81 1636.69 1352.66 1638.06 C 1341.34 1641.82 1338.65 1658.77 1333.67 1668.25 L 1333.03 1669.44 C 1328.88 1670.19 1324.63 1670.64 1320.45 1671.23 C 1325.36 1647.6 1334.24 1624.47 1341.8 1601.57 C 1344.85 1592.34 1347.01 1582.83 1350.1 1573.63 C 1351.76 1568.69 1352.96 1566.46 1357.75 1564.08 z M 1348.95 1629.95 C 1354.5 1630.28 1360.03 1630.6 1365.56 1631.22 C 1369.68 1630.7 1373.76 1630.12 1377.92 1630.07 C 1374.5 1616.42 1371.98 1597.12 1364.59 1585.37 L 1362.46 1584.25 C 1355.95 1599.06 1353.58 1614.59 1348.95 1629.95 z"/>
<path transform="translate(0,0)" fill="rgb(235,233,235)" d="M 1532.81 1618.17 C 1547.45 1604.19 1558.63 1580.42 1572.87 1568.89 C 1576.5 1565.95 1581.5 1563.05 1586.31 1563.54 C 1588.74 1565.16 1588.89 1565.46 1590.04 1568.17 C 1585.81 1581.62 1569.97 1592.85 1563.8 1606.75 C 1563.64 1607.12 1563.49 1607.48 1563.33 1607.85 C 1568.82 1623.36 1594.85 1655.14 1594.18 1668.16 C 1594.06 1670.49 1593.65 1670.73 1592.04 1672.23 C 1589.56 1672.55 1587.3 1672.72 1584.84 1672.16 C 1582.71 1671.68 1580.62 1671.07 1579.13 1669.39 C 1572.88 1662.28 1568.54 1650.21 1564.08 1641.76 C 1559.97 1634.06 1555.45 1626.58 1550.55 1619.36 C 1542.31 1629 1535.56 1635.82 1533.99 1649.06 C 1533.73 1649.5 1533.44 1649.94 1533.19 1650.39 C 1529.68 1656.73 1534.89 1665.32 1526.84 1668.87 C 1524.83 1669.76 1522.53 1669.9 1520.45 1670.81 C 1520.38 1670.52 1520.3 1670.22 1520.23 1669.93 C 1520.12 1669.43 1520.01 1668.94 1519.9 1668.45 C 1519.8 1668.07 1519.69 1667.69 1519.6 1667.31 C 1517.22 1657.52 1515.44 1572.77 1518.99 1566.97 C 1521.35 1565.58 1523.12 1565.23 1525.82 1565.25 C 1528.34 1565.27 1530.02 1566.01 1531.62 1567.94 C 1537.19 1574.67 1534.05 1608.73 1532.81 1618.17 z"/>
<path transform="translate(0,0)" fill="rgb(235,233,235)" d="M 1615.1 1565.29 C 1617.31 1565.03 1619.53 1564.85 1621.75 1564.74 C 1630.39 1564.42 1672.61 1563.54 1677.72 1568.15 C 1678.6 1570.81 1678.6 1571.26 1678 1573.99 C 1668.55 1583.9 1644.38 1574.05 1632.17 1579.41 C 1627.44 1585.21 1630.37 1603.17 1630.94 1610.21 C 1642.23 1613.86 1658.96 1608.94 1667.32 1613.29 C 1669.81 1614.59 1670 1615.02 1670.69 1617.53 C 1670.1 1618.83 1669.84 1620.02 1668.65 1620.92 C 1661.04 1626.65 1639.95 1621.87 1630.76 1621.33 C 1630.66 1625.8 1630.59 1630.28 1630.56 1634.75 C 1629.94 1642.35 1631.5 1651.01 1631.95 1658.7 C 1642.47 1659.14 1673.37 1657.08 1680.62 1663.63 C 1680.74 1665.66 1681.13 1665.2 1679.98 1666.5 C 1673.04 1674.28 1628.58 1670.55 1616.25 1671.32 C 1615.94 1662.73 1616.75 1654.12 1616.35 1645.5 C 1615.8 1633.36 1613.6 1621.26 1613.64 1609.11 C 1613.67 1600.11 1615.36 1591.28 1615.69 1582.34 C 1615.9 1576.58 1614.35 1571.05 1615.1 1565.29 z"/>
<path transform="translate(0,0)" fill="rgb(235,233,235)" d="M 1461.66 1562.28 C 1464.39 1561.93 1467.17 1562.1 1469.89 1562.46 C 1478.42 1563.6 1487.88 1566.96 1492.74 1574.61 C 1494.13 1576.79 1494.27 1577.93 1493.75 1580.39 C 1485.1 1588.98 1470.43 1572.22 1453.14 1579.4 C 1445.59 1582.54 1440.69 1589.32 1437.79 1596.75 C 1432.18 1611.13 1431.89 1629.55 1438.66 1643.52 C 1442.05 1650.51 1447.56 1656.94 1455.14 1659.4 C 1465.78 1662.85 1476.49 1657.34 1485.89 1652.85 C 1487.66 1652.81 1489.64 1652.69 1491.39 1653.08 C 1493.96 1653.64 1495.27 1654.32 1496.66 1656.5 C 1496.5 1657.44 1496.45 1658.05 1495.97 1658.96 C 1492.45 1665.64 1480.62 1669.57 1473.63 1671.24 C 1461.68 1674.09 1449.47 1673.08 1438.96 1666.23 C 1427.96 1659.07 1421.36 1646.82 1418.79 1634.19 C 1415.54 1618.25 1416.19 1595.98 1425.63 1582.25 C 1434.54 1569.29 1447.08 1565.22 1461.66 1562.28 z"/>
<path transform="translate(0,0)" fill="rgb(235,233,235)" d="M 1163.49 1565.46 C 1175.61 1565.69 1206.32 1562.67 1216.15 1567.44 C 1218.13 1568.41 1218.3 1568.82 1219.04 1570.75 C 1218.85 1571.15 1218.69 1571.56 1218.47 1571.95 C 1214.04 1579.78 1194.9 1577.81 1186.56 1580.41 L 1185.2 1580.85 C 1186.01 1607.95 1186.73 1634.79 1186.82 1661.93 C 1186.52 1664.62 1186.43 1667.61 1185.2 1670.07 C 1184.29 1671.88 1182.73 1673.16 1180.76 1673.74 C 1178.16 1674.51 1174.6 1674.64 1172.3 1673 C 1164.46 1667.38 1171.44 1594.38 1170.72 1581.29 L 1170.63 1579.86 C 1161.76 1577.91 1151.24 1579.44 1142.87 1576.23 C 1139.89 1575.08 1140.06 1574.26 1139 1571.41 C 1139.24 1569.87 1139.03 1568.98 1140.25 1567.86 C 1144.6 1563.88 1157.67 1565.52 1163.49 1565.46 z"/>
<path transform="translate(0,0)" fill="rgb(235,233,235)" d="M 1722.89 1362.84 C 1725.81 1363.37 1730.14 1363.89 1732.08 1366.35 C 1736.57 1372.06 1734.95 1444.9 1735.5 1458.37 C 1737.5 1458.58 1739.5 1458.74 1741.5 1458.94 C 1751 1459.9 1769.27 1453.59 1777.07 1457.83 C 1779.65 1459.23 1779.71 1460.01 1780.48 1462.64 C 1779.81 1465.75 1779.03 1467.3 1777.18 1469.9 C 1763.33 1475.8 1733.83 1472.78 1718.41 1470.57 L 1718.14 1469.26 C 1716.14 1459.95 1714.58 1378.17 1717.51 1368.07 C 1718.37 1365.08 1720.43 1364.33 1722.89 1362.84 z"/>
<path transform="translate(0,0)" fill="rgb(235,233,235)" d="M 1640.93 1361.91 C 1644.21 1362.02 1646.33 1362.19 1649.26 1363.75 C 1651.9 1366.93 1652.24 1370.26 1652.68 1374.29 C 1654.13 1387.5 1652.83 1401.64 1652.64 1414.94 C 1652.52 1429.44 1653.08 1443.93 1654.32 1458.38 C 1655.39 1458.57 1656.44 1458.71 1657.52 1458.87 C 1669.6 1460.66 1684.29 1455.41 1695.41 1459.8 C 1697.11 1461.61 1698.05 1462.22 1697.74 1464.93 C 1697.4 1467.85 1696.15 1468.53 1694.05 1470.27 C 1684.72 1472.77 1646.71 1473.96 1637.7 1471.07 C 1634.25 1465.88 1634.47 1383.98 1635.06 1373.08 C 1635.36 1367.43 1636.86 1365.6 1640.93 1361.91 z"/>
<path transform="translate(0,0)" fill="rgb(235,233,235)" d="M 1595.77 1361.8 C 1599.48 1362.55 1602.72 1362.85 1605.58 1365.47 C 1607.56 1369.22 1607.54 1373.65 1607.74 1377.82 C 1608.52 1393.92 1607.24 1410.14 1607.14 1426.26 C 1607.06 1438.27 1608.25 1450.79 1607.34 1462.71 C 1606.95 1467.75 1606.49 1470.49 1602.59 1473.86 C 1600.41 1473.94 1598.17 1474.08 1596 1473.9 C 1593.36 1473.68 1591.89 1472.37 1590.24 1470.41 C 1588.19 1460.71 1587.57 1373.96 1589.82 1367.55 C 1590.94 1364.34 1592.98 1363.32 1595.77 1361.8 z"/>
<path transform="translate(0,0)" fill="rgb(139,82,254)" d="M 670.058 1327.17 C 679.828 1325.75 691.672 1327.07 701.699 1326.67 C 698.824 1329.42 695.601 1331.86 692.516 1334.38 C 691.053 1336.01 689.595 1337.26 687.839 1338.57 C 685.392 1338.71 683.185 1338.06 680.987 1337.01 C 677.234 1335.21 671.488 1331.15 670.058 1327.17 z"/>
<path transform="translate(0,0)" fill="rgb(235,233,235)" fill-opacity="0.972549" d="M 1533.99 1649.06 C 1534.25 1655.86 1536.12 1665.92 1531.32 1671.28 C 1528.57 1672.78 1525.84 1672.4 1522.9 1671.61 C 1522.07 1671.38 1521.27 1671.09 1520.45 1670.81 C 1522.53 1669.9 1524.83 1669.76 1526.84 1668.87 C 1534.89 1665.32 1529.68 1656.73 1533.19 1650.39 C 1533.44 1649.94 1533.73 1649.5 1533.99 1649.06 z"/>
</svg>